<?xml version="1.0" encoding="us-ascii" standalone="no"?><svg xmlns="http://www.w3.org/2000/svg" xmlns:xlink="http://www.w3.org/1999/xlink" contentStyleType="text/css" height="623px" preserveAspectRatio="none" style="width:3165px;height:623px;background:#FFFFFF;" version="1.1" viewBox="0 0 3165 623" width="3165px" zoomAndPan="magnify"><defs/><g><text fill="#000000" font-family="Microsoft YaHei" font-size="14" font-weight="bold" lengthAdjust="spacing" textLength="365" x="1392" y="22.9951">&#22823;&#23398;&#29983;&#36814;&#26032;&#23548;&#24341;&#26381;&#21153;&#25968;&#23383;&#20154;&#31995;&#32479; &#183; &#21518;&#31471;&#26680;&#24515;&#26381;&#21153;&#19982;&#21151;&#33021;&#26550;&#26500;</text><text fill="#000000" font-family="Microsoft YaHei" font-size="12" font-weight="bold" lengthAdjust="spacing" textLength="395" x="1377" y="37.4355">&#21151;&#33021;&#32534;&#21495;&#19982; docs/&#21151;&#33021;&#28165;&#21333;.md &#23545;&#24212;&#65307;&#38500;&#22522;&#30784;&#35774;&#26045;&#22806;&#19994;&#21153;&#21151;&#33021;&#22343;&#20026;&#24453;&#24320;&#21457;</text><!--cluster P0--><g id="cluster_P0"><path d="M16.5,55.2656 L191.5,55.2656 A3.75,3.75 0 0 1 194,57.7656 L201,77.5625 L509.5,77.5625 A2.5,2.5 0 0 1 512,80.0625 L512,158.7656 A2.5,2.5 0 0 1 509.5,161.2656 L16.5,161.2656 A2.5,2.5 0 0 1 14,158.7656 L14,57.7656 A2.5,2.5 0 0 1 16.5,55.2656 " fill="#FAFCFE" style="stroke:#94A3B8;stroke-width:1.5;"/><line style="stroke:#94A3B8;stroke-width:1.5;" x1="14" x2="201" y1="77.5625" y2="77.5625"/><text fill="#1E293B" font-family="Microsoft YaHei" font-size="14" font-weight="bold" lengthAdjust="spacing" textLength="174" x="18" y="70.2607">&#25509;&#20837;&#31471; &#183; &#22810;&#31471;&#36866;&#37197;&#65288;M10&#65289;</text></g><!--cluster P1--><g id="cluster_P1"><path d="M59.5,169.2656 L404.5,169.2656 A3.75,3.75 0 0 1 407,171.7656 L414,191.5625 L658.5,191.5625 A2.5,2.5 0 0 1 661,194.0625 L661,410.2656 A2.5,2.5 0 0 1 658.5,412.7656 L59.5,412.7656 A2.5,2.5 0 0 1 57,410.2656 L57,171.7656 A2.5,2.5 0 0 1 59.5,169.2656 " fill="#FAFCFE" style="stroke:#94A3B8;stroke-width:1.5;"/><line style="stroke:#94A3B8;stroke-width:1.5;" x1="57" x2="414" y1="191.5625" y2="191.5625"/><text fill="#1E293B" font-family="Microsoft YaHei" font-size="14" font-weight="bold" lengthAdjust="spacing" textLength="344" x="61" y="184.2607">&#32593;&#20851;&#23618; &#183; gateway : 8080&#65288;&#24179;&#21488;&#19982;&#22522;&#30784;&#35774;&#26045; M11&#65289;</text></g><!--cluster P2--><g id="cluster_P2"><path d="M671.5,251.2656 L960.5,251.2656 A3.75,3.75 0 0 1 963,253.7656 L970,273.5625 L3155.5,273.5625 A2.5,2.5 0 0 1 3158,276.0625 L3158,490.7656 A2.5,2.5 0 0 1 3155.5,493.2656 L671.5,493.2656 A2.5,2.5 0 0 1 669,490.7656 L669,253.7656 A2.5,2.5 0 0 1 671.5,251.2656 " fill="#FAFCFE" style="stroke:#94A3B8;stroke-width:1.5;"/><line style="stroke:#94A3B8;stroke-width:1.5;" x1="669" x2="970" y1="273.5625" y2="273.5625"/><text fill="#1E293B" font-family="Microsoft YaHei" font-size="14" font-weight="bold" lengthAdjust="spacing" textLength="288" x="673" y="266.2607">&#19994;&#21153;&#26381;&#21153;&#23618; &#183; &#26680;&#24515;&#26381;&#21153;&#65288;&#31471;&#21475; 8100-8107&#65289;</text></g><!--cluster P3--><g id="cluster_P3"><path d="M532.5,501.2656 L617.5,501.2656 A3.75,3.75 0 0 1 620,503.7656 L627,523.5625 L1147.5,523.5625 A2.5,2.5 0 0 1 1150,526.0625 L1150,611.7656 A2.5,2.5 0 0 1 1147.5,614.2656 L532.5,614.2656 A2.5,2.5 0 0 1 530,611.7656 L530,503.7656 A2.5,2.5 0 0 1 532.5,501.2656 " fill="#FAFCFE" style="stroke:#94A3B8;stroke-width:1.5;"/><line style="stroke:#94A3B8;stroke-width:1.5;" x1="530" x2="627" y1="523.5625" y2="523.5625"/><text fill="#1E293B" font-family="Microsoft YaHei" font-size="14" font-weight="bold" lengthAdjust="spacing" textLength="84" x="534" y="516.2607">&#25968;&#25454;&#19982;&#32531;&#23384;&#23618;</text></g><g id="elem_GMN37"><path d="M42,523.7656 L42,610.5938 L520,610.5938 L520,533.7656 L510,523.7656 L42,523.7656 " fill="#FFF9E6" style="stroke:#D9B34A;stroke-width:0.5;"/><path d="M510,523.7656 L510,533.7656 L520,533.7656 L510,523.7656 " fill="#FFF9E6" style="stroke:#D9B34A;stroke-width:1.0;"/><text fill="#000000" font-family="Microsoft YaHei" font-size="11" font-weight="bold" lengthAdjust="spacing" textLength="281" x="48" y="538.9761">&#20844;&#20849;&#33021;&#21147;&#23618;&#65288;&#35268;&#21010;&#20013;&#65292;&#24403;&#21069;&#20179;&#24211;&#19981;&#23384;&#22312; common &#27169;&#22359;&#65289;</text><text fill="#000000" font-family="Microsoft YaHei" font-size="11" lengthAdjust="spacing" textLength="457" x="48" y="551.7808">&#183; &#32479;&#19968;&#21709;&#24212;&#20307; { code, message, data }&#65292;&#38169;&#35823;&#30721;&#20998;&#27573; 1xxx &#35748;&#35777; / 2xxx &#19994;&#21153; / 9xxx &#31995;&#32479;</text><text fill="#000000" font-family="Microsoft YaHei" font-size="11" lengthAdjust="spacing" textLength="186" x="48" y="564.5854">&#183; &#20840;&#23616;&#24322;&#24120;&#22788;&#29702; &#183; &#21442;&#25968;&#26657;&#39564; &#183; &#26085;&#24535;&#35268;&#33539;</text><text fill="#000000" font-family="Microsoft YaHei" font-size="11" lengthAdjust="spacing" textLength="263" x="48" y="577.3901">&#183; JWT &#31614;&#21457;&#19982;&#26657;&#39564;&#12289;&#32593;&#20851;&#37492;&#26435; Filter&#12289;Redis &#20196;&#29260;&#23384;&#20648;</text><text fill="#000000" font-family="Microsoft YaHei" font-size="11" lengthAdjust="spacing" textLength="403" x="48" y="590.1948">&#183; &#25509;&#21475;&#39118;&#26684;&#65306;RESTful&#65292;&#21069;&#32512; /api/&#12296;&#26381;&#21153;&#31616;&#31216;&#12297;/**&#65307;&#23454;&#26102;&#20132;&#20114;&#35268;&#21010;&#36208; WebSocket</text><text fill="#000000" font-family="Microsoft YaHei" font-size="11" lengthAdjust="spacing" textLength="316" x="48" y="602.9995">&#183; &#33853;&#22320;&#21407;&#21017;&#65306;&#20808;&#23450;&#32479;&#19968;&#26041;&#26696;&#20877;&#36880;&#26381;&#21153;&#34917;&#40784;&#65292;&#19981;&#22312;&#27599;&#20010;&#26381;&#21153;&#21508;&#20889;&#19968;&#22871;</text></g><!--entity U1--><g id="elem_U1"><rect fill="#EEF4FB" height="71.2188" rx="2.5" ry="2.5" style="stroke:#526D82;stroke-width:0.5;" width="153" x="350.5" y="82.2656"/><text fill="#000000" font-family="Microsoft YaHei" font-size="11" lengthAdjust="spacing" textLength="82" x="360.5" y="102.4761">&#24494;&#20449;&#23567;&#31243;&#24207; / H5</text><text fill="#000000" font-family="Microsoft YaHei" font-size="11" lengthAdjust="spacing" textLength="85" x="360.5" y="115.2808">&#183; &#30331;&#24405;&#19982;&#36523;&#20221;&#26680;&#39564;</text><text fill="#000000" font-family="Microsoft YaHei" font-size="11" lengthAdjust="spacing" textLength="133" x="360.5" y="128.0854">&#183; &#25968;&#23383;&#20154;&#23545;&#35805;&#65288;&#35821;&#38899;/&#25991;&#23383;&#65289;</text><text fill="#000000" font-family="Microsoft YaHei" font-size="11" lengthAdjust="spacing" textLength="132" x="360.5" y="140.8901">&#183; &#25253;&#21040; / &#23548;&#33322; / &#36164;&#21161; / &#29983;&#27963;</text></g><!--entity U2--><g id="elem_U2"><rect fill="#EEF4FB" height="71.2188" rx="2.5" ry="2.5" style="stroke:#526D82;stroke-width:0.5;" width="130" x="202" y="82.2656"/><text fill="#000000" font-family="Microsoft YaHei" font-size="11" lengthAdjust="spacing" textLength="110" x="212" y="102.4761">&#31649;&#29702;&#21518;&#21488; admin-web</text><text fill="#000000" font-family="Microsoft YaHei" font-size="11" lengthAdjust="spacing" textLength="91" x="212" y="115.2808">&#183; &#30331;&#24405; + &#36335;&#30001;&#23432;&#21355;</text><text fill="#000000" font-family="Microsoft YaHei" font-size="11" lengthAdjust="spacing" textLength="109" x="212" y="128.0854">&#183; &#38382;&#31572;&#24211; &#183; &#35805;&#26415; &#183; &#20844;&#21578;</text><text fill="#000000" font-family="Microsoft YaHei" font-size="11" lengthAdjust="spacing" textLength="52" x="212" y="140.8901">&#183; &#25968;&#25454;&#30475;&#26495;</text></g><!--entity U3--><g id="elem_U3"><rect fill="#EEF4FB" height="45.6094" rx="2.5" ry="2.5" style="stroke:#526D82;stroke-width:0.5;" width="161" x="22.5" y="94.7656"/><text fill="#000000" font-family="Microsoft YaHei" font-size="11" lengthAdjust="spacing" textLength="141" x="32.5" y="114.9761">PC &#29616;&#22330;&#22823;&#23631; / &#36814;&#26032;&#23448;&#32593;&#23884;&#20837;</text><text fill="#000000" font-family="Microsoft YaHei" font-size="11" lengthAdjust="spacing" textLength="85" x="32.5" y="127.7808">&#183; &#25968;&#23383;&#20154;&#33258;&#21161;&#21672;&#35810;</text></g><!--entity G1--><g id="elem_G1"><rect fill="#EEF4FB" height="45.6094" rx="2.5" ry="2.5" style="stroke:#526D82;stroke-width:0.5;" width="175" x="65.5" y="196.2656"/><text fill="#000000" font-family="Microsoft YaHei" font-size="11" lengthAdjust="spacing" textLength="155" x="75.5" y="216.4761">API &#32593;&#20851;&#36335;&#30001; F11.1&#65288;&#24050;&#23454;&#29616;&#65289;</text><text fill="#000000" font-family="Microsoft YaHei" font-size="11" lengthAdjust="spacing" textLength="144" x="75.5" y="229.2808">/api/&#12296;&#26381;&#21153;&#12297;/** &#19981;&#35009;&#21098;&#21069;&#32512;</text></g><!--entity G2--><g id="elem_G2"><rect fill="#EEF4FB" height="45.6094" rx="2.5" ry="2.5" style="stroke:#526D82;stroke-width:0.5;" width="165" x="293.5" y="196.2656"/><text fill="#000000" font-family="Microsoft YaHei" font-size="11" lengthAdjust="spacing" textLength="145" x="303.5" y="216.4761">&#36830;&#36890;&#24615;&#33258;&#26816; F11.2&#65288;&#24050;&#23454;&#29616;&#65289;</text><text fill="#000000" font-family="Microsoft YaHei" font-size="11" lengthAdjust="spacing" textLength="132" x="303.5" y="229.2808">&#21508;&#26381;&#21153; /ping + Swagger</text></g><!--entity G3--><g id="elem_G3"><rect fill="#EEF4FB" height="45.6094" rx="2.5" ry="2.5" style="stroke:#526D82;stroke-width:0.5;" width="176" x="477" y="196.2656"/><text fill="#000000" font-family="Microsoft YaHei" font-size="11" lengthAdjust="spacing" textLength="156" x="487" y="216.4761">&#29615;&#22659;&#21464;&#37327;&#37197;&#32622; F11.4&#65288;&#24050;&#23454;&#29616;&#65289;</text><text fill="#000000" font-family="Microsoft YaHei" font-size="11" lengthAdjust="spacing" textLength="111" x="487" y="229.2808">&#26412;&#22320;&#40664;&#35748;&#20540; / &#20113;&#19978;&#35206;&#30422;</text></g><!--entity G4--><g id="elem_G4"><rect fill="#EEF4FB" height="45.6094" rx="2.5" ry="2.5" style="stroke:#526D82;stroke-width:0.5;" width="210" x="65" y="358.7656"/><text fill="#000000" font-family="Microsoft YaHei" font-size="11" lengthAdjust="spacing" textLength="190" x="75" y="378.9761">&#32479;&#19968;&#37492;&#26435; &#183; &#38480;&#27969;&#38450;&#21047; F11.6&#65288;&#35268;&#21010;&#20013;&#65289;</text><text fill="#000000" font-family="Microsoft YaHei" font-size="11" lengthAdjust="spacing" textLength="54" x="75" y="391.7808">&#32593;&#20851; Filter</text></g><!--entity G5--><g id="elem_G5"><rect fill="#EEF4FB" height="45.6094" rx="2.5" ry="2.5" style="stroke:#526D82;stroke-width:0.5;" width="165" x="293.5" y="358.7656"/><text fill="#000000" font-family="Microsoft YaHei" font-size="11" lengthAdjust="spacing" textLength="145" x="303.5" y="378.9761">&#30417;&#25511;&#19982;&#26085;&#24535; F11.7&#65288;&#35268;&#21010;&#20013;&#65289;</text><text fill="#000000" font-family="Microsoft YaHei" font-size="11" lengthAdjust="spacing" textLength="103" x="303.5" y="391.7808">Actuator / &#38598;&#20013;&#26085;&#24535;</text></g><!--entity S1--><g id="elem_S1"><rect fill="#EEF4FB" height="156.0469" rx="2.5" ry="2.5" style="stroke:#526D82;stroke-width:0.5;" width="303" x="2846.5" y="303.7656"/><text fill="#000000" font-family="Microsoft YaHei" font-size="11" font-weight="bold" lengthAdjust="spacing" textLength="124" x="2856.5" y="323.9761">auth-service : 8100</text><text fill="#000000" font-family="Microsoft YaHei" font-size="11" lengthAdjust="spacing" textLength="159" x="2980.5" y="323.9761">&#12288;&#36523;&#20221;&#26680;&#39564;&#19982;&#20010;&#24615;&#21270;&#36814;&#26032;&#65288;M1&#65289;</text><line style="stroke:#526D82;stroke-width:1.0;" x1="2847.5" x2="3148.5" y1="326.5703" y2="326.5703"/><text fill="#000000" font-family="Microsoft YaHei" font-size="11" lengthAdjust="spacing" textLength="117" x="2856.5" y="340.7808">&#183; &#23398;&#21495;/&#36523;&#20221;&#35777;&#30331;&#24405; F1.1</text><text fill="#000000" font-family="Microsoft YaHei" font-size="11" lengthAdjust="spacing" textLength="102" x="2856.5" y="353.5854">&#183; &#24494;&#20449;&#19968;&#38190;&#30331;&#24405; F1.2</text><text fill="#000000" font-family="Microsoft YaHei" font-size="11" lengthAdjust="spacing" textLength="91" x="2856.5" y="366.3901">&#183; &#20154;&#33080;&#36731;&#26680;&#39564; F1.3</text><text fill="#000000" font-family="Microsoft YaHei" font-size="11" lengthAdjust="spacing" textLength="102" x="2856.5" y="379.1948">&#183; &#36523;&#20221;&#20449;&#24687;&#35299;&#26512; F1.4</text><text fill="#000000" font-family="Microsoft YaHei" font-size="11" lengthAdjust="spacing" textLength="102" x="2856.5" y="391.9995">&#183; &#20010;&#24615;&#21270;&#27426;&#36814;&#35821; F1.5</text><text fill="#000000" font-family="Microsoft YaHei" font-size="11" lengthAdjust="spacing" textLength="102" x="2856.5" y="404.8042">&#183; &#19987;&#23646;&#25253;&#21040;&#28165;&#21333; F1.6</text><text fill="#000000" font-family="Microsoft YaHei" font-size="11" lengthAdjust="spacing" textLength="102" x="2856.5" y="417.6089">&#183; &#24453;&#21150;&#20107;&#39033;&#25512;&#36865; F1.7</text><text fill="#000000" font-family="Microsoft YaHei" font-size="11" lengthAdjust="spacing" textLength="114" x="2856.5" y="430.4136">&#183; &#20250;&#35805;&#19982;&#20196;&#29260; JWT F1.8</text><text fill="#000000" font-family="Microsoft YaHei" font-size="11" lengthAdjust="spacing" textLength="124" x="2856.5" y="443.2183">&#183; &#32479;&#19968;&#36523;&#20221;&#35748;&#35777;&#23545;&#25509; F1.9</text></g><!--entity S2--><g id="elem_S2"><rect fill="#EEF4FB" height="207.2656" rx="2.5" ry="2.5" style="stroke:#526D82;stroke-width:0.5;" width="301" x="2527.5" y="278.2656"/><text fill="#000000" font-family="Microsoft YaHei" font-size="11" font-weight="bold" lengthAdjust="spacing" textLength="111" x="2537.5" y="298.4761">qa-service : 8101</text><text fill="#000000" font-family="Microsoft YaHei" font-size="11" lengthAdjust="spacing" textLength="170" x="2648.5" y="298.4761">&#12288;&#26234;&#33021;&#38382;&#31572;&#65288;M3&#65292;&#25968;&#23383;&#20154;&#20027;&#20132;&#20114;&#65289;</text><line style="stroke:#526D82;stroke-width:1.0;" x1="2528.5" x2="2827.5" y1="301.0703" y2="301.0703"/><text fill="#000000" font-family="Microsoft YaHei" font-size="11" lengthAdjust="spacing" textLength="91" x="2537.5" y="315.2808">&#183; &#38382;&#31572;&#24211;&#31649;&#29702; F3.1</text><text fill="#000000" font-family="Microsoft YaHei" font-size="11" lengthAdjust="spacing" textLength="91" x="2537.5" y="328.0854">&#183; &#39640;&#39057;&#38382;&#26816;&#32034; F3.2</text><text fill="#000000" font-family="Microsoft YaHei" font-size="11" lengthAdjust="spacing" textLength="80" x="2537.5" y="340.8901">&#183; &#24847;&#22270;&#29702;&#35299; F3.3</text><text fill="#000000" font-family="Microsoft YaHei" font-size="11" lengthAdjust="spacing" textLength="91" x="2537.5" y="353.6948">&#183; &#21475;&#35821;&#21270;&#25552;&#38382; F3.4</text><text fill="#000000" font-family="Microsoft YaHei" font-size="11" lengthAdjust="spacing" textLength="80" x="2537.5" y="366.4995">&#183; &#22810;&#36718;&#23545;&#35805; F3.5</text><text fill="#000000" font-family="Microsoft YaHei" font-size="11" lengthAdjust="spacing" textLength="83" x="2537.5" y="379.3042">&#183; LLM &#20828;&#24213; F3.6</text><text fill="#000000" font-family="Microsoft YaHei" font-size="11" lengthAdjust="spacing" textLength="91" x="2537.5" y="392.1089">&#183; &#23500;&#23186;&#20307;&#31572;&#26696; F3.7</text><text fill="#000000" font-family="Microsoft YaHei" font-size="11" lengthAdjust="spacing" textLength="146" x="2537.5" y="404.9136">&#183; &#35821;&#38899; ASR / TTS F3.8-F3.9</text><text fill="#000000" font-family="Microsoft YaHei" font-size="11" lengthAdjust="spacing" textLength="109" x="2537.5" y="417.7183">&#183; &#28909;&#38376;&#38382;&#39064;&#25512;&#33616; F3.10</text><text fill="#000000" font-family="Microsoft YaHei" font-size="11" lengthAdjust="spacing" textLength="109" x="2537.5" y="430.5229">&#183; &#26410;&#35299;&#31572;&#36716;&#20154;&#24037; F3.11</text><text fill="#000000" font-family="Microsoft YaHei" font-size="11" lengthAdjust="spacing" textLength="87" x="2537.5" y="443.3276">&#183; &#28909;&#28857;&#32531;&#23384; F3.12</text><text fill="#000000" font-family="Microsoft YaHei" font-size="11" lengthAdjust="spacing" textLength="109" x="2537.5" y="456.1323">&#183; &#23545;&#35805;&#35760;&#24405;&#23384;&#20648; F3.13</text><text fill="#000000" font-family="Microsoft YaHei" font-size="11" lengthAdjust="spacing" textLength="152" x="2537.5" y="468.937">&#183; WebSocket &#23454;&#26102;&#20250;&#35805; F3.14</text></g><!--entity S3--><g id="elem_S3"><rect fill="#EEF4FB" height="168.8516" rx="2.5" ry="2.5" style="stroke:#526D82;stroke-width:0.5;" width="290" x="2219" y="297.2656"/><text fill="#000000" font-family="Microsoft YaHei" font-size="11" font-weight="bold" lengthAdjust="spacing" textLength="144" x="2229" y="317.4761">checkin-service : 8102</text><text fill="#000000" font-family="Microsoft YaHei" font-size="11" lengthAdjust="spacing" textLength="126" x="2373" y="317.4761">&#12288;&#25253;&#21040;&#20840;&#27969;&#31243;&#23548;&#24341;&#65288;M2&#65289;</text><line style="stroke:#526D82;stroke-width:1.0;" x1="2220" x2="2508" y1="320.0703" y2="320.0703"/><text fill="#000000" font-family="Microsoft YaHei" font-size="11" lengthAdjust="spacing" textLength="102" x="2229" y="334.2808">&#183; &#27493;&#39588;&#27169;&#26495;&#37197;&#32622; F2.1</text><text fill="#000000" font-family="Microsoft YaHei" font-size="11" lengthAdjust="spacing" textLength="91" x="2229" y="347.0854">&#183; &#27493;&#39588;&#21270;&#24341;&#23548; F2.2</text><text fill="#000000" font-family="Microsoft YaHei" font-size="11" lengthAdjust="spacing" textLength="102" x="2229" y="359.8901">&#183; &#21150;&#29702;&#20449;&#24687;&#23637;&#31034; F2.3</text><text fill="#000000" font-family="Microsoft YaHei" font-size="11" lengthAdjust="spacing" textLength="102" x="2229" y="372.6948">&#183; &#25253;&#21040;&#29366;&#24577;&#26597;&#35810; F2.4</text><text fill="#000000" font-family="Microsoft YaHei" font-size="11" lengthAdjust="spacing" textLength="102" x="2229" y="385.4995">&#183; &#27493;&#39588;&#23436;&#25104;&#25171;&#21345; F2.5</text><text fill="#000000" font-family="Microsoft YaHei" font-size="11" lengthAdjust="spacing" textLength="113" x="2229" y="398.3042">&#183; &#26448;&#26009;&#28165;&#21333;&#19982;&#25552;&#37266; F2.6</text><text fill="#000000" font-family="Microsoft YaHei" font-size="11" lengthAdjust="spacing" textLength="102" x="2229" y="411.1089">&#183; &#32564;&#36153;&#29366;&#24577;&#26597;&#35810; F2.7</text><text fill="#000000" font-family="Microsoft YaHei" font-size="11" lengthAdjust="spacing" textLength="102" x="2229" y="423.9136">&#183; &#32511;&#33394;&#36890;&#36947;&#20837;&#21475; F2.8</text><text fill="#000000" font-family="Microsoft YaHei" font-size="11" lengthAdjust="spacing" textLength="102" x="2229" y="436.7183">&#183; &#24322;&#24120;&#22788;&#29702;&#25351;&#24341; F2.9</text><text fill="#000000" font-family="Microsoft YaHei" font-size="11" lengthAdjust="spacing" textLength="120" x="2229" y="449.5229">&#183; &#25253;&#21040;&#20973;&#35777;&#20108;&#32500;&#30721; F2.10</text></g><!--entity S4--><g id="elem_S4"><rect fill="#EEF4FB" height="168.8516" rx="2.5" ry="2.5" style="stroke:#526D82;stroke-width:0.5;" width="317" x="1883.5" y="297.2656"/><text fill="#000000" font-family="Microsoft YaHei" font-size="11" font-weight="bold" lengthAdjust="spacing" textLength="163" x="1893.5" y="317.4761">navigation-service : 8103</text><text fill="#000000" font-family="Microsoft YaHei" font-size="11" lengthAdjust="spacing" textLength="134" x="2056.5" y="317.4761">&#12288;&#26657;&#22253; AR/3D &#23548;&#33322;&#65288;M4&#65289;</text><line style="stroke:#526D82;stroke-width:1.0;" x1="1884.5" x2="2199.5" y1="320.0703" y2="320.0703"/><text fill="#000000" font-family="Microsoft YaHei" font-size="11" lengthAdjust="spacing" textLength="118" x="1893.5" y="334.2808">&#183; &#22320;&#22270;&#19982; POI &#31649;&#29702; F4.1</text><text fill="#000000" font-family="Microsoft YaHei" font-size="11" lengthAdjust="spacing" textLength="81" x="1893.5" y="347.0854">&#183; POI &#26816;&#32034; F4.2</text><text fill="#000000" font-family="Microsoft YaHei" font-size="11" lengthAdjust="spacing" textLength="102" x="1893.5" y="359.8901">&#183; &#23460;&#22806;&#36335;&#24452;&#35268;&#21010; F4.3</text><text fill="#000000" font-family="Microsoft YaHei" font-size="11" lengthAdjust="spacing" textLength="80" x="1893.5" y="372.6948">&#183; &#23460;&#20869;&#23548;&#33322; F4.4</text><text fill="#000000" font-family="Microsoft YaHei" font-size="11" lengthAdjust="spacing" textLength="102" x="1893.5" y="385.4995">&#183; &#27493;&#34892;&#26102;&#38388;&#20272;&#31639; F4.5</text><text fill="#000000" font-family="Microsoft YaHei" font-size="11" lengthAdjust="spacing" textLength="80" x="1893.5" y="398.3042">&#183; &#26657;&#20869;&#36890;&#21220; F4.6</text><text fill="#000000" font-family="Microsoft YaHei" font-size="11" lengthAdjust="spacing" textLength="91" x="1893.5" y="411.1089">&#183; &#25968;&#23383;&#20154;&#24102;&#36335; F4.7</text><text fill="#000000" font-family="Microsoft YaHei" font-size="11" lengthAdjust="spacing" textLength="80" x="1893.5" y="423.9136">&#183; &#22320;&#26631;&#35762;&#35299; F4.8</text><text fill="#000000" font-family="Microsoft YaHei" font-size="11" lengthAdjust="spacing" textLength="98" x="1893.5" y="436.7183">&#183; AR &#23454;&#26223;&#23548;&#33322; F4.9</text><text fill="#000000" font-family="Microsoft YaHei" font-size="11" lengthAdjust="spacing" textLength="131" x="1893.5" y="449.5229">&#183; &#24120;&#29992;&#22320;&#28857;&#24555;&#25463;&#23548;&#33322; F4.10</text></g><!--entity S5--><g id="elem_S5"><rect fill="#EEF4FB" height="143.2422" rx="2.5" ry="2.5" style="stroke:#526D82;stroke-width:0.5;" width="261" x="1604.5" y="310.2656"/><text fill="#000000" font-family="Microsoft YaHei" font-size="11" font-weight="bold" lengthAdjust="spacing" textLength="115" x="1614.5" y="330.4761">aid-service : 8104</text><text fill="#000000" font-family="Microsoft YaHei" font-size="11" lengthAdjust="spacing" textLength="126" x="1729.5" y="330.4761">&#12288;&#36164;&#21161;&#19982;&#32511;&#33394;&#36890;&#36947;&#65288;M5&#65289;</text><line style="stroke:#526D82;stroke-width:1.0;" x1="1605.5" x2="1864.5" y1="333.0703" y2="333.0703"/><text fill="#000000" font-family="Microsoft YaHei" font-size="11" lengthAdjust="spacing" textLength="91" x="1614.5" y="347.2808">&#183; &#36164;&#21161;&#25919;&#31574;&#24211; F5.1</text><text fill="#000000" font-family="Microsoft YaHei" font-size="11" lengthAdjust="spacing" textLength="102" x="1614.5" y="360.0854">&#183; &#25919;&#31574;&#26465;&#20214;&#21305;&#37197; F5.2</text><text fill="#000000" font-family="Microsoft YaHei" font-size="11" lengthAdjust="spacing" textLength="80" x="1614.5" y="372.8901">&#183; &#26448;&#26009;&#28165;&#21333; F5.3</text><text fill="#000000" font-family="Microsoft YaHei" font-size="11" lengthAdjust="spacing" textLength="102" x="1614.5" y="385.6948">&#183; &#21150;&#29702;&#20837;&#21475;&#30452;&#36798; F5.4</text><text fill="#000000" font-family="Microsoft YaHei" font-size="11" lengthAdjust="spacing" textLength="102" x="1614.5" y="398.4995">&#183; &#32511;&#33394;&#36890;&#36947;&#30003;&#35831; F5.5</text><text fill="#000000" font-family="Microsoft YaHei" font-size="11" lengthAdjust="spacing" textLength="102" x="1614.5" y="411.3042">&#183; &#32531;&#20132;&#23398;&#36153;&#25351;&#24341; F5.6</text><text fill="#000000" font-family="Microsoft YaHei" font-size="11" lengthAdjust="spacing" textLength="102" x="1614.5" y="424.1089">&#183; &#30003;&#35831;&#36827;&#24230;&#26597;&#35810; F5.7</text><text fill="#000000" font-family="Microsoft YaHei" font-size="11" lengthAdjust="spacing" textLength="80" x="1614.5" y="436.9136">&#183; &#30003;&#35831;&#23457;&#26680; F5.8</text></g><!--entity S6--><g id="elem_S6"><rect fill="#EEF4FB" height="168.8516" rx="2.5" ry="2.5" style="stroke:#526D82;stroke-width:0.5;" width="251" x="1335.5" y="297.2656"/><text fill="#000000" font-family="Microsoft YaHei" font-size="11" font-weight="bold" lengthAdjust="spacing" textLength="116" x="1345.5" y="317.4761">life-service : 8105</text><text fill="#000000" font-family="Microsoft YaHei" font-size="11" lengthAdjust="spacing" textLength="115" x="1461.5" y="317.4761">&#12288;&#29983;&#27963;&#26381;&#21153;&#32858;&#21512;&#65288;M6&#65289;</text><line style="stroke:#526D82;stroke-width:1.0;" x1="1336.5" x2="1585.5" y1="320.0703" y2="320.0703"/><text fill="#000000" font-family="Microsoft YaHei" font-size="11" lengthAdjust="spacing" textLength="80" x="1345.5" y="334.2808">&#183; &#23487;&#33293;&#25253;&#20462; F6.1</text><text fill="#000000" font-family="Microsoft YaHei" font-size="11" lengthAdjust="spacing" textLength="80" x="1345.5" y="347.0854">&#183; &#27700;&#30005;&#32564;&#36153; F6.2</text><text fill="#000000" font-family="Microsoft YaHei" font-size="11" lengthAdjust="spacing" textLength="103" x="1345.5" y="359.8901">&#183; &#27927;&#34915;&#26426; / &#28909;&#27700; F6.3</text><text fill="#000000" font-family="Microsoft YaHei" font-size="11" lengthAdjust="spacing" textLength="58" x="1345.5" y="372.6948">&#183; &#38376;&#31105; F6.4</text><text fill="#000000" font-family="Microsoft YaHei" font-size="11" lengthAdjust="spacing" textLength="80" x="1345.5" y="385.4995">&#183; &#39135;&#22530;&#26381;&#21153; F6.5</text><text fill="#000000" font-family="Microsoft YaHei" font-size="11" lengthAdjust="spacing" textLength="91" x="1345.5" y="398.3042">&#183; &#26657;&#22253;&#32593;&#24320;&#36890; F6.6</text><text fill="#000000" font-family="Microsoft YaHei" font-size="11" lengthAdjust="spacing" textLength="114" x="1345.5" y="411.1089">&#183; &#33829;&#19994;&#21381; / &#24555;&#36882;&#28857; F6.7</text><text fill="#000000" font-family="Microsoft YaHei" font-size="11" lengthAdjust="spacing" textLength="91" x="1345.5" y="423.9136">&#183; &#23601;&#21307;&#19982;&#21307;&#20445; F6.8</text><text fill="#000000" font-family="Microsoft YaHei" font-size="11" lengthAdjust="spacing" textLength="80" x="1345.5" y="436.7183">&#183; &#24515;&#29702;&#20013;&#24515; F6.9</text><text fill="#000000" font-family="Microsoft YaHei" font-size="11" lengthAdjust="spacing" textLength="113" x="1345.5" y="449.5229">&#183; &#29983;&#27963;&#26381;&#21153; FAQ F6.10</text></g><!--entity S7--><g id="elem_S7"><rect fill="#EEF4FB" height="181.6563" rx="2.5" ry="2.5" style="stroke:#526D82;stroke-width:0.5;" width="318" x="999" y="290.7656"/><text fill="#000000" font-family="Microsoft YaHei" font-size="11" font-weight="bold" lengthAdjust="spacing" textLength="144" x="1009" y="310.9761">content-service : 8106</text><text fill="#000000" font-family="Microsoft YaHei" font-size="11" lengthAdjust="spacing" textLength="154" x="1153" y="310.9761">&#12288;&#23433;&#20840;&#19982;&#31038;&#22242;&#20869;&#23481;&#65288;M7 / M8&#65289;</text><line style="stroke:#526D82;stroke-width:1.0;" x1="1000" x2="1316" y1="313.5703" y2="313.5703"/><text fill="#000000" font-family="Microsoft YaHei" font-size="11" lengthAdjust="spacing" textLength="113" x="1009" y="327.7808">&#183; &#23433;&#20840;&#30693;&#35782;&#20869;&#23481;&#24211; F7.1</text><text fill="#000000" font-family="Microsoft YaHei" font-size="11" lengthAdjust="spacing" textLength="80" x="1009" y="340.5854">&#183; &#26696;&#20363;&#25512;&#36865; F7.2</text><text fill="#000000" font-family="Microsoft YaHei" font-size="11" lengthAdjust="spacing" textLength="80" x="1009" y="353.3901">&#183; &#23433;&#20840;&#31572;&#39064; F7.3</text><text fill="#000000" font-family="Microsoft YaHei" font-size="11" lengthAdjust="spacing" textLength="91" x="1009" y="366.1948">&#183; &#25968;&#23383;&#20154;&#35762;&#35299; F7.4</text><text fill="#000000" font-family="Microsoft YaHei" font-size="11" lengthAdjust="spacing" textLength="124" x="1009" y="378.9995">&#183; &#32039;&#24613;&#30005;&#35805;&#19968;&#38190;&#25320;&#21495; F7.5</text><text fill="#000000" font-family="Microsoft YaHei" font-size="11" lengthAdjust="spacing" textLength="80" x="1009" y="391.8042">&#183; &#23398;&#20064;&#35760;&#24405; F7.6</text><text fill="#000000" font-family="Microsoft YaHei" font-size="11" lengthAdjust="spacing" textLength="80" x="1009" y="404.6089">&#183; &#31038;&#22242;&#20171;&#32461; F8.1</text><text fill="#000000" font-family="Microsoft YaHei" font-size="11" lengthAdjust="spacing" textLength="80" x="1009" y="417.4136">&#183; &#25307;&#26032;&#20449;&#24687; F8.2</text><text fill="#000000" font-family="Microsoft YaHei" font-size="11" lengthAdjust="spacing" textLength="114" x="1009" y="430.2183">&#183; &#20837;&#23398;&#25945;&#32946; / &#26657;&#35268; F8.3</text><text fill="#000000" font-family="Microsoft YaHei" font-size="11" lengthAdjust="spacing" textLength="80" x="1009" y="443.0229">&#183; &#20891;&#35757;&#23433;&#25490; F8.4</text><text fill="#000000" font-family="Microsoft YaHei" font-size="11" lengthAdjust="spacing" textLength="102" x="1009" y="455.8276">&#183; &#24120;&#29992;&#34920;&#26684;&#19979;&#36733; F8.5</text></g><!--entity S8--><g id="elem_S8"><rect fill="#EEF4FB" height="168.8516" rx="2.5" ry="2.5" style="stroke:#526D82;stroke-width:0.5;" width="269" x="711.5" y="297.2656"/><text fill="#000000" font-family="Microsoft YaHei" font-size="11" font-weight="bold" lengthAdjust="spacing" textLength="134" x="721.5" y="317.4761">admin-service : 8107</text><text fill="#000000" font-family="Microsoft YaHei" font-size="11" lengthAdjust="spacing" textLength="115" x="855.5" y="317.4761">&#12288;&#31649;&#29702;&#21518;&#21488;&#25903;&#25745;&#65288;M9&#65289;</text><line style="stroke:#526D82;stroke-width:1.0;" x1="712.5" x2="979.5" y1="320.0703" y2="320.0703"/><text fill="#000000" font-family="Microsoft YaHei" font-size="11" lengthAdjust="spacing" textLength="135" x="721.5" y="334.2808">&#183; &#31649;&#29702;&#21592;&#30331;&#24405; F9.1&#65288;&#39592;&#26550;&#65289;</text><text fill="#000000" font-family="Microsoft YaHei" font-size="11" lengthAdjust="spacing" textLength="125" x="721.5" y="347.0854">&#183; &#20998;&#26435;&#38480;&#31649;&#29702; RBAC F9.2</text><text fill="#000000" font-family="Microsoft YaHei" font-size="11" lengthAdjust="spacing" textLength="135" x="721.5" y="359.8901">&#183; &#38382;&#31572;&#24211;&#31649;&#29702; F9.3&#65288;&#39592;&#26550;&#65289;</text><text fill="#000000" font-family="Microsoft YaHei" font-size="11" lengthAdjust="spacing" textLength="113" x="721.5" y="372.6948">&#183; &#25968;&#23383;&#20154;&#35805;&#26415;&#37197;&#32622; F9.4</text><text fill="#000000" font-family="Microsoft YaHei" font-size="11" lengthAdjust="spacing" textLength="135" x="721.5" y="385.4995">&#183; &#20844;&#21578;&#19982;&#36814;&#26032;&#20449;&#24687;&#21457;&#24067; F9.5</text><text fill="#000000" font-family="Microsoft YaHei" font-size="11" lengthAdjust="spacing" textLength="146" x="721.5" y="398.3042">&#183; &#25968;&#25454;&#32479;&#35745;&#30475;&#26495; F9.6&#65288;&#39592;&#26550;&#65289;</text><text fill="#000000" font-family="Microsoft YaHei" font-size="11" lengthAdjust="spacing" textLength="102" x="721.5" y="411.1089">&#183; &#25253;&#21040;&#36827;&#24230;&#32479;&#35745; F9.7</text><text fill="#000000" font-family="Microsoft YaHei" font-size="11" lengthAdjust="spacing" textLength="102" x="721.5" y="423.9136">&#183; &#20869;&#23481;&#23457;&#26680;&#21457;&#24067; F9.8</text><text fill="#000000" font-family="Microsoft YaHei" font-size="11" lengthAdjust="spacing" textLength="80" x="721.5" y="436.7183">&#183; &#25805;&#20316;&#26085;&#24535; F9.9</text><text fill="#000000" font-family="Microsoft YaHei" font-size="11" lengthAdjust="spacing" textLength="87" x="721.5" y="449.5229">&#183; &#31995;&#32479;&#37197;&#32622; F9.10</text></g><!--entity DB--><g id="elem_DB"><path d="M850.5,538.2656 C850.5,528.2656 996,528.2656 996,528.2656 C996,528.2656 1141.5,528.2656 1141.5,538.2656 L1141.5,596.1563 C1141.5,606.1563 996,606.1563 996,606.1563 C996,606.1563 850.5,606.1563 850.5,596.1563 L850.5,538.2656 " fill="#E8F3EC" style="stroke:#526D82;stroke-width:0.5;"/><path d="M850.5,538.2656 C850.5,548.2656 996,548.2656 996,548.2656 C996,548.2656 1141.5,548.2656 1141.5,538.2656 " fill="none" style="stroke:#526D82;stroke-width:0.5;"/><text fill="#000000" font-family="Microsoft YaHei" font-size="14" lengthAdjust="spacing" textLength="94" x="860.5" y="565.2607">MySQL 8.0.46</text><text fill="#000000" font-family="Microsoft YaHei" font-size="14" lengthAdjust="spacing" textLength="147" x="860.5" y="581.5576">&#24211; yingxin &#183; &#25353;&#26381;&#21153;&#20998;&#34920;</text><text fill="#000000" font-family="Microsoft YaHei" font-size="14" lengthAdjust="spacing" textLength="271" x="860.5" y="597.8545">init-sql/01-init.sql&#65288;&#20165;&#24314;&#24211;&#65292;&#26080;&#29256;&#26412;&#31649;&#29702;&#65289;</text></g><!--entity RD--><g id="elem_RD"><path d="M538,546.2656 C538,536.2656 685,536.2656 685,536.2656 C685,536.2656 832,536.2656 832,546.2656 L832,587.8594 C832,597.8594 685,597.8594 685,597.8594 C685,597.8594 538,597.8594 538,587.8594 L538,546.2656 " fill="#E8F3EC" style="stroke:#526D82;stroke-width:0.5;"/><path d="M538,546.2656 C538,556.2656 685,556.2656 685,556.2656 C685,556.2656 832,556.2656 832,546.2656 " fill="none" style="stroke:#526D82;stroke-width:0.5;"/><text fill="#000000" font-family="Microsoft YaHei" font-size="14" lengthAdjust="spacing" textLength="87" x="548" y="573.2607">Redis 7.0.15</text><text fill="#000000" font-family="Microsoft YaHei" font-size="14" lengthAdjust="spacing" textLength="274" x="548" y="589.5576">&#28909;&#28857;&#38382;&#31572;&#32531;&#23384;&#65288;F3.12&#65289;&#183; JWT &#20196;&#29260;&#65288;F1.8&#65289;</text></g><polygon fill="#526D82" points="284.2312,169.0767,293.7397,166.5097,288.1131,165.9253,288.6975,160.2987,284.2312,169.0767" style="stroke:#526D82;stroke-width:1.0;"/><path d="M362.6328,153.2855 C355.4625,156.3108 348.1614,159.0565 341,161.2656 C328.7775,165.0359 319.4675,162.9742 310.7431,162.0007 C306.3809,161.514 302.1651,161.2993 297.8049,162.2218 C295.6248,162.683 293.4085,163.4286 291.1198,164.5665 C289.9755,165.1354 288.813,165.8025 287.6279,166.5812 C287.0353,166.9705 286.4371,167.3878 285.8327,167.8346 C285.5304,168.058 285.2266,168.2889 284.9212,168.5273 C284.7685,168.6465 284.6154,168.7676 284.4619,168.8907 C284.3851,168.9522 288.9664,165.2325 288.8895,165.295 " fill="none" style="stroke:#526D82;stroke-width:1.0;"/><polygon fill="#526D82" points="267,169.2292,271,160.2292,267,164.2292,263,160.2292,267,169.2292" style="stroke:#526D82;stroke-width:1.0;"/><path d="M267,153.2867 C267,158.0015 267,162.9183 267,167.8438 C267,168.1517 267,168.4595 267,168.7674 C267,168.9214 267,163.0753 267,163.2292 " fill="none" style="stroke:#526D82;stroke-width:1.0;"/><polygon fill="#526D82" points="248.7713,169.0817,244.2379,160.3382,244.8654,165.9602,239.2435,166.5877,248.7713,169.0817" style="stroke:#526D82;stroke-width:1.0;"/><path d="M143.1954,140.9015 C158.4018,148.4237 176.1186,156.1997 193,161.2656 C205.0403,164.8788 214.1543,162.925 222.7012,162.0448 C226.9746,161.6047 231.1063,161.433 235.3911,162.3598 C237.5335,162.8232 239.7142,163.5612 241.9701,164.6776 C243.098,165.2358 244.2447,165.8886 245.4149,166.6489 C245.9999,167.0291 246.5908,167.4362 247.1882,167.8717 C247.4868,168.0895 247.7871,168.3144 248.089,168.5467 C248.24,168.6628 248.3914,168.7808 248.5432,168.9006 C248.6191,168.9605 244.0081,165.275 244.0842,165.3359 " fill="none" style="stroke:#526D82;stroke-width:1.0;"/><polygon fill="#526D82" points="2924.0857,303.6751,2919.7761,294.8192,2920.2604,300.4553,2914.6243,300.9396,2924.0857,303.6751" style="stroke:#526D82;stroke-width:1.0;"/><path d="M669.6693,248.5545 C676.9644,248.577 684.3368,248.5985 691.7842,248.6188 C930.1022,249.2687 1245.225,248.7881 1560.3981,248.1889 C2190.7441,246.9906 2821.2908,245.3178 2838,251.2656 C2869.3101,262.4109 2894.3969,278.6851 2919.4954,299.8113 " fill="none" style="stroke:#526D82;stroke-width:1.0;"/><polygon fill="#526D82" points="2570.3088,278.2172,2565.0281,269.9037,2566.1449,275.4493,2560.5993,276.566,2570.3088,278.2172" style="stroke:#526D82;stroke-width:1.0;"/><path d="M670.4408,248.0895 C673.794,248.0986 677.1629,248.1076 680.5472,248.1163 C694.0843,248.1511 707.8675,248.1825 721.8803,248.2105 C749.9059,248.2666 778.85,248.3095 808.5817,248.3407 C868.045,248.4032 930.6581,248.4193 995.372,248.4024 C1124.7999,248.3686 1262.6311,248.2025 1400.4732,248.0105 C1951.8416,247.2424 2503.3857,246.0593 2518,251.2656 C2536.1784,257.7417 2548.8103,263.9261 2565.3121,274.8957 " fill="none" style="stroke:#526D82;stroke-width:1.0;"/><polygon fill="#526D82" points="2285.3558,296.9699,2280.9865,288.1433,2281.5089,293.776,2275.8762,294.2983,2285.3558,296.9699" style="stroke:#526D82;stroke-width:1.0;"/><path d="M667.6947,251.1829 C691.6863,251.1924 716.4389,251.1761 741.8441,251.1374 C792.6543,251.06 846.0745,250.893 901.2362,250.6627 C1011.5594,250.2023 1128.8484,249.489 1246.155,248.7348 C1715.3813,245.7178 2184.8893,242.0445 2210,251.2656 C2237.217,261.2603 2258.3573,274.554 2280.7395,293.1372 " fill="none" style="stroke:#526D82;stroke-width:1.0;"/><polygon fill="#526D82" points="1956.1523,297.2355,1951.4511,288.581,1952.1869,294.1898,1946.5781,294.9257,1956.1523,297.2355" style="stroke:#526D82;stroke-width:1.0;"/><path d="M662.1468,250.1279 C704.1133,250.1228 748.2359,250.046 793.7971,249.918 C884.9195,249.6622 981.7968,249.2018 1078.6909,248.7011 C1466.2674,246.6982 1854.1136,244.0502 1875,251.2656 C1903.956,261.2687 1927.0311,274.8689 1951.3938,293.5807 " fill="none" style="stroke:#526D82;stroke-width:1.0;"/><polygon fill="#526D82" points="1678.5537,310.0527,1675.0976,300.8301,1675.0488,306.4868,1669.3921,306.438,1678.5537,310.0527" style="stroke:#526D82;stroke-width:1.0;"/><path d="M662.7976,248.7565 C667.3739,248.7491 671.9722,248.741 676.5914,248.7322 C685.8298,248.7146 695.1515,248.6942 704.5474,248.6714 C779.7144,248.4884 859.626,248.1458 939.5471,247.782 C1259.2315,246.3268 1579.0668,244.5328 1596,251.2656 C1627.2613,263.6955 1651.4719,282.4996 1674.3478,305.7736 " fill="none" style="stroke:#526D82;stroke-width:1.0;"/><polygon fill="#526D82" points="1393.5761,297.2022,1389.7883,288.1109,1389.9443,293.7656,1384.2896,293.9216,1393.5761,297.2022" style="stroke:#526D82;stroke-width:1.0;"/><path d="M663.4443,247.8361 C678.7821,247.8113 694.2965,247.7807 709.929,247.7458 C741.1939,247.6761 772.9307,247.5895 804.6692,247.4992 C1058.5772,246.7761 1312.5955,245.8085 1326,251.2656 C1350.9666,261.4298 1369.5768,274.4919 1389.218,293.0782 " fill="none" style="stroke:#526D82;stroke-width:1.0;"/><polygon fill="#526D82" points="1062.5709,290.7175,1057.6202,282.2033,1058.5187,287.7884,1052.9337,288.6869,1062.5709,290.7175" style="stroke:#526D82;stroke-width:1.0;"/><path d="M663.724,248.2429 C665.0292,248.2306 666.3339,248.2182 667.638,248.2058 C678.071,248.1066 688.4685,248.0074 698.794,247.9105 C719.4449,247.7165 739.8078,247.5314 759.5907,247.373 C799.1565,247.0562 836.4024,246.8462 868.9934,246.886 C934.1755,246.9655 980.7379,248.0442 990,251.2656 C1015.565,260.1574 1035.436,271.1034 1057.7083,287.2026 " fill="none" style="stroke:#526D82;stroke-width:1.0;"/><polygon fill="#526D82" points="772.7653,297.0153,768.678,288.0546,769.0216,293.701,763.3751,294.0445,772.7653,297.0153" style="stroke:#526D82;stroke-width:1.0;"/><path d="M661.3118,246.2039 C661.7852,246.2226 662.2556,246.2418 662.723,246.2614 C666.4622,246.4187 670.0068,246.6063 673.3391,246.8273 C686.6683,247.7111 696.6009,249.128 702,251.2656 C727.7907,261.4766 747.4212,274.5783 768.2728,293.0381 " fill="none" style="stroke:#526D82;stroke-width:1.0;"/><polygon fill="#526D82" points="919.6602,528.2117,912.978,520.9765,915.0684,526.2329,909.812,528.3234,919.6602,528.2117" style="stroke:#526D82;stroke-width:1.0;"/><path d="M703,493.2656 C714.4081,503.5494 826.0367,497.8016 841,501.2656 C867.4383,507.3861 889.6132,515.2634 914.1501,525.8372 " fill="none" style="stroke:#526D82;stroke-width:1.0;"/><polygon fill="#526D82" points="685,536.092,689,527.092,685,531.092,681,527.092,685,536.092" style="stroke:#526D82;stroke-width:1.0;"/><path d="M685,493.4517 C685,493.6599 685,493.868 685,494.076 C685,494.4919 685,494.9073 685,495.3221 C685,496.9812 685,498.6307 685,500.2683 C685,513.3692 685,519.7078 685,530.092 " fill="none" style="stroke:#526D82;stroke-width:1.0;"/><path d="M668.8153,489.5381 C668.4141,489.9701 668.0055,490.3963 667.5893,490.8166 C666.7569,491.6572 665.8941,492.4741 665,493.2656 C653.4168,503.5199 541.2763,498.8252 526,501.2656 C491.8876,506.7151 455.6588,514.9343 421.819,523.7123 " fill="none" style="stroke:#526D82;stroke-width:1.0;stroke-dasharray:7.0,7.0;"/><!--SRC=[hLZhJrj75l_ENp7DVjWjBHW_05DrAv67qwsIBWr9gvNwvGOxnAgngUqyQ5N9F0m6R6p0l9_c4IY97oGa63-mj7_AufbxxwVy2tlEpBtc6bEjLYf2Q9XpvioPt_dDcNFk9uD-gNz08XvfoFSiI083hg3abPh-Ilx-P_o07RftGDElvEIMKfbXYpcQBT7I0bkFqQaKMyZHz5ArK93V5UNY5lbFA0c_X2PcvDTPjfsdbL6XIAUsbD4os_p0DiVesZbOXQKibc4R-woG-5XQTVhw0YPDAn-ciONM0UV7KkIvkRNjOsdo8ZJyMEhxoULrcW8k_tDtdojWQZP9WuCUTvyKTFkyhKC37iBYSQMI0rqmN_lfbuAk5zAGAU3lCmr8Rg_9xmhudldHmjNrocbMJXuhgKDqB_-MRSspnJDQYeDxt_UIMpwdwo8KxV58tk2Z-_SkGZ4s-JizNY3Tdk1djucwCwOSH3wMeZJ-Jarc4AM90kdvzgwfz_kx5w4Heq_qz2tTpR7b6VB9jS63WzFni5pEo8Ki-KPwBX6Q7wN78SHzVWRmW6tOqhQw7gAPIMKtJExwfS6dpzs_V2oj6VTHflTXAwF2tvo-uAUaca-oqNVAgs6sTg8SZB654tbrJ6o11uXiivb9fRAYfA94yu_6tj5ubaOcwDec0HlYG4hs10u1y8Z0oQL56Zyb3d3_PUiGk5dDpv3h0WiEXE2NPize8Ga-orCVM6YuMjnNiljiSOAbTglv0fqO_zD87FZ9xHsK_D80GHhr-ttFlCvRFe_FJ_xYu3y63QVhYVJC4tJulC5lfG4NkN7VtUVt1NnFWkHVqjSkzms3Rk2fvFIzS7lxoHF94t0P91wtrnKS6dGHdp_ur6SGU8560TSWCTiDatx9-nDEMjiCazr-l- -5vcMxfUEstN9LY3xskdzn4RFPQCpL1oJgzxXk-lnEb_-FB5ogNONapXs7pN7pEjNhDxmj1QN7Kk1_x5VJQjZExh3UkMNGx04DgR_UN9UjsthJVerIGpox7RSSTneLqNLDnNp7qcMzURrARt38uoAFVHwdGVwjBtZDHWv7rvsEgrf6dszttRJQkgze625i2hg3iDl_aM3_VNfDSeLhPiolFtg_3C06NvWjNndlvHzUnjerL5Vsw5P1JeMKp3bRBDEznMf-jPQywSO4tihpC2s5Q7psInDkybLJqw00ZznWC_iql0- -SI_tLc6aXaRKS0pomNqpfl4RH0gGdZRoQnEvv1IvGSyprKgAvkBouJGjn8c9VDt-enUCo2j5Mbu0nvN2wsgn36TMZw9SKiC5d5Uo6x23aashM-zCa3v007i9jQbz6ic1GS1KYHp1G7a_HgT-Xm70pKwAtAD7vdf_v4nAJem3pZIU8v9pmErjUU5wRF28VAQz5JGJeR7NNA8kPUHqaXRcyVJW4biNE8JVqDaftMTuyUJrQRPH4VjQwlVjkKNacHnTBo0XZX47ZH2PPRayIzz70TxwqoiJHt0QEdUeP7U4IMlJRuQGuBBmEteyWgveBo7vWjZRx6tunfn1KiyXUmnH9_VDvbgep5T3rTtp3oAC2W28msnkDQCjUD8oc-0-XnwULhVf8XGH_Bm8JPgQco7fnvJTOJfvH2TZSYd4TxXx1Ngbigc6Lbde04x6TaFSlAN1F4sC2Sl4D8Z9zpFI-qBgxtVvXSqhiCepMRepIkFBwaGSs0ZFAZThQp3Brj_GzPnQN5OoUpHK0lohXTbgVafvDIwlBGhRrYksYrlmaAcJ9snZ535MLnBi_R2w_9P6Jlak7KZDWp4QcQlcqtmN0Hznk3r1tM7R5QDhispc0EB2blPfPOdRwMomqzqNV2O58S-OYBes3hD2MrXihwE1kCPQ9IR8OCmVO1hkAetl4hkvhQq5_dJM66011jHxrzmiFGi-RT7gC6GJB6fklWY5ZBSKlA_cZo2GDBeeMCop0FUyfOMp678Uf2MJMALaXxMxvG122JbF2mXlCdCfit0PSdyihvIBOZSKMBb0M8DrR3Yh7EoopGJAR6AHxX1ximC-GSP0MRiccwV7co9VYDI8iWxDaJ2TsgmMfjNK6PivL4F3AEiKwqghSDdnjCKzUJ9AlldX8Ghj8bjmTcW7pEp16I5TGPf4ZIwERw-v0TsVfNfipHnRjbA072oI329fnH9GJmFLVB5QsAiMvepmrXAII6V4OTLmLLylgpkp88OB9f_ie420oiRYK9k3BW27im9Hu0KWXQZ54x081G9EIF5AEICICCuA8E_Tkmz9RvqM5d1E0p0RfKTprV8yECHI4HG8z4JI9jsz3u353n_seiJU0d-w17wZQNNf43PLTvO1U2MMuATe4zwk7u6VO54fly67u7IV2ytwIddaJ2xDq_GodxPeZg2pIYO7P0897JdaGd7G7roFUttGP0G9v0Isz464bYlOHB0i3S7gU-hgW-UzFc8M4J7E9He-X8I03nj_rJ5q5cEKM7fVFTfZXobu5FJaPD429MI0F2o4vIZGZZ6r2L4I98SEHDuheCngUF94HSsseABUGPdDQ30JPP44cvodiHJAHDpOHe8jhWZgO-g1O8_FeLY4K2wTA2TdLyrsQZIlA9Dl8M-hm_FmH64Y0Pcu0hGqGlDvkZS63hFe19m4PLq6L-b46Yv6jH2LYoVozZ0_Vfl0szg0jrTwxkxd7Lizv5O1-NQAhgL9zmEJzRRsv2FWjhgiivu3acCnrFDFUCkqks7J8CSv_LhOTBJXDTXRXFUEde-958moQqqs7jQg2vYjuGoz4r18NJgfbd9oPWbb6ixWutWOmABJUpZRSQMUoR-2dL3GgRlBjYUKp5j-9sqQgjqFE4TNifSx2qW1Qpbv28k0_RJociLEBpLqL6sD2Ttjh8VJ9l8vhvK0AcE04T1s8w12YoKhSdeHonz7kqvVFiKsKjNY1nez0tQZpDB0Dfor6dWjA2H3Qtf-ZZ9R0ydav3ibUueohKuipKF-W_S4AAgJh5qdBjTLAckqy4edRhjEN2wZcHIy8ZXh5m2rDm3aSJznrIFKpX4IHQHuHPNXLPg883mTTNpBL9H83AXUhS3Lxj2noPt8oVVYKk6iXih9afBQPUi5h4z7qw24CgkMpW_bLyFuly13tTsYsoDQ6GIpb-nQIsE9KGe1LYWGC2Y9VQm2Pi9O35TUgw4vO0YADPhbZccqYAKW_Arie42xlvLHJ3NvD0nmLalCXdCJH_Tt_60QlJeQaoIqF2vli1x03WuWpKn2XaIAxPtJjHsyIvapnB0J_BnlhmSILMKCuRZGusphr15DHQhdq_hpt5cxktnHEWal2CvQhzJFshtgr4bsSi12-n0P_gPZuS6c3_atZKuDO21PzMnRl20ugv6CUryjJij58BbTTsbw3UeUaQPnLdC9w9r-nHPMb96tS4Y862GL56jtO7nDoQJ1RpOpXxCsmxrMKeTikrJDJolbCihQ1UATZHUQDorrU7SAmXfQ6vRCihbP1BlBYBEcChkirrnTlC1NZmwXlTGRAnePXueNgbqjWJwusNqBDItNbnvThTO64vT1uCsI_lXrwIVcZHFsVhnwr1wx-2pDZw9Ikx6bAcufi15lh53MqRWNVsb44X3QgATHNt299u5B-uBzR3vMBQ_hPNYNpdxUYrywh3FVNbTq2z-GshmAWRfRLDHMtbCvjQyXvCRzeTxlxX5xQrkh3SY4d1w2dkQbsylBzEYaLhP7nY7wFthTNZTSf9yzfZPp2uvROGp7hHR3j5Y0nUBBe3m9hTSRWRvUoj- -MRVj0vVJ7I2TiAqPi1JraeYRy1UCyhe9beCVMDQA2XVdeRxLhJwuZOT-P2OjBLz1lzZqo58RMVLHKuyGGx6hZooraRKsijL6xRLHHstKMHlPmQ3O1OwaZS2D9gylY5zkWa7V0F4zWTO5pjlSZ3mA7-FtYwarY45z6nMbvNdeHgl5UO0E-bECq_eXwVCD3FYy1Aeoke7V4fgRmLIjdgVpCLf8GZLBVWLDf-jpCk0A123cdtDuoMzWLqskADaib3DuKJBlYVdbovT4j01mvotudsZAuByk_4zmIcm36Oj_xBsidFXiV0GfjPt2VWUfmLa9Xr6Yes8T1abEdmE9iO3ZYXUXOT5lQYsgw3fXLeHVX5HKmi86ViI9xwgxiBxqiRJwu4xlmoVFF8WKRzf9VMSlPqBoGKxqznzBQrhTp5iHWRBoFdTPLuiTb4GPQx2PBHfPmK_7uGZDh0fasU8Pf74w7bD32UrHJUshvGHiZy5PFsJPE3PnuaOankZu2iPZVwd9vNKIZ7_JVm40]--></g></svg>