<?xml version="1.0" encoding="us-ascii" standalone="no"?><svg xmlns="http://www.w3.org/2000/svg" xmlns:xlink="http://www.w3.org/1999/xlink" contentStyleType="text/css" height="1198px" preserveAspectRatio="none" style="width:651px;height:1198px;background:#FFFFFF;" version="1.1" viewBox="0 0 651 1198" width="651px" zoomAndPan="magnify"><defs/><g><text fill="#000000" font-family="Microsoft YaHei" font-size="14" font-weight="bold" lengthAdjust="spacing" textLength="281" x="181.5" y="22.9951">&#22823;&#23398;&#29983;&#36814;&#26032;&#23548;&#24341;&#26381;&#21153;&#25968;&#23383;&#20154;&#31995;&#32479; &#183; &#31995;&#32479;&#29992;&#20363;&#22270;</text><!--cluster ???????????--><g id="cluster_&#36814;&#26032;&#23548;&#24341;&#26381;&#21153;&#25968;&#23383;&#20154;&#31995;&#32479;"><rect fill="#FAFCFE" height="939" rx="2.5" ry="2.5" style="stroke:#94A3B8;stroke-width:1.0;" width="468" x="177" y="70.5109"/><text fill="#000000" font-family="Microsoft YaHei" font-size="14" font-weight="bold" lengthAdjust="spacing" textLength="154" x="334" y="85.506">&#36814;&#26032;&#23548;&#24341;&#26381;&#21153;&#25968;&#23383;&#20154;&#31995;&#32479;</text></g><!--entity A_Student--><g id="elem_A_Student"><ellipse cx="77" cy="742.5109" fill="#FFFFFF" rx="16" ry="16" style="stroke:#526D82;stroke-width:0.5;"/><path d="M77,762.5109 C81,762.5109 84,762.5109 88,758.5109 C96,758.5109 104,766.5109 104,774.5109 L104,778.5109 C104,782.5109 100,786.5109 96,786.5109 L58,786.5109 C54,786.5109 50,782.5109 50,778.5109 L50,774.5109 C50,766.5109 58,758.5109 66,758.5109 C70,762.5109 73,762.5109 77,762.5109 " fill="#FFFFFF" style="stroke:#526D82;stroke-width:0.5;"/><text fill="#000000" font-family="Microsoft YaHei" font-size="13" lengthAdjust="spacing" textLength="26" x="38" y="799.0778">&#26032;&#29983;</text><text fill="#000000" font-family="Microsoft YaHei" font-size="13" lengthAdjust="spacing" textLength="78" x="38" y="814.2106">&#65288;&#31532;&#19968;&#29992;&#25143;&#65289;</text></g><!--entity A_Guest--><g id="elem_A_Guest"><ellipse cx="77" cy="392.5109" fill="#FFFFFF" rx="16" ry="16" style="stroke:#526D82;stroke-width:0.5;"/><path d="M77,412.5109 C81,412.5109 84,412.5109 88,408.5109 C96,408.5109 104,416.5109 104,424.5109 L104,428.5109 C104,432.5109 100,436.5109 96,436.5109 L58,436.5109 C54,436.5109 50,432.5109 50,428.5109 L50,424.5109 C50,416.5109 58,408.5109 66,408.5109 C70,412.5109 73,412.5109 77,412.5109 " fill="#FFFFFF" style="stroke:#526D82;stroke-width:0.5;"/><text fill="#000000" font-family="Microsoft YaHei" font-size="13" lengthAdjust="spacing" textLength="64" x="38" y="449.0778">&#23478;&#38271; / &#35775;&#23458;</text><text fill="#000000" font-family="Microsoft YaHei" font-size="13" lengthAdjust="spacing" textLength="78" x="38" y="464.2106">&#65288;&#21482;&#35835;&#21672;&#35810;&#65289;</text></g><!--entity A_Volunteer--><g id="elem_A_Volunteer"><ellipse cx="77" cy="-22.4891" fill="#FFFFFF" rx="16" ry="16" style="stroke:#526D82;stroke-width:0.5;"/><path d="M77,-2.4891 C81,-2.4891 84,-2.4891 88,-6.4891 C96,-6.4891 104,1.5109 104,9.5109 L104,13.5109 C104,17.5109 100,21.5109 96,21.5109 L58,21.5109 C54,21.5109 50,17.5109 50,13.5109 L50,9.5109 C50,1.5109 58,-6.4891 66,-6.4891 C70,-2.4891 73,-2.4891 77,-2.4891 " fill="#FFFFFF" style="stroke:#526D82;stroke-width:0.5;"/><text fill="#000000" font-family="Microsoft YaHei" font-size="13" lengthAdjust="spacing" textLength="90" x="32" y="34.0778">&#24535;&#24895;&#32773; / &#36741;&#23548;&#21592;</text><text fill="#000000" font-family="Microsoft YaHei" font-size="13" lengthAdjust="spacing" textLength="78" x="32" y="49.2106">&#65288;&#29616;&#22330;&#31572;&#30097;&#65289;</text></g><!--entity A_Admin--><g id="elem_A_Admin"><ellipse cx="77" cy="175.5109" fill="#FFFFFF" rx="16" ry="16" style="stroke:#526D82;stroke-width:0.5;"/><path d="M77,195.5109 C81,195.5109 84,195.5109 88,191.5109 C96,191.5109 104,199.5109 104,207.5109 L104,211.5109 C104,215.5109 100,219.5109 96,219.5109 L58,219.5109 C54,219.5109 50,215.5109 50,211.5109 L50,207.5109 C50,199.5109 58,191.5109 66,191.5109 C70,195.5109 73,195.5109 77,195.5109 " fill="#FFFFFF" style="stroke:#526D82;stroke-width:0.5;"/><text fill="#000000" font-family="Microsoft YaHei" font-size="13" lengthAdjust="spacing" textLength="65" x="6" y="232.0778">&#23398;&#26657;&#31649;&#29702;&#21592;</text><text fill="#000000" font-family="Microsoft YaHei" font-size="13" lengthAdjust="spacing" textLength="142" x="6" y="247.2106">&#65288;&#23398;&#24037;/&#21518;&#21220;/&#20445;&#21355;/&#23398;&#38498;&#65289;</text></g><!--entity A_Ops--><g id="elem_A_Ops"><ellipse cx="77" cy="298.0109" fill="#FFFFFF" rx="16" ry="16" style="stroke:#526D82;stroke-width:0.5;"/><path d="M77,318.0109 C81,318.0109 84,318.0109 88,314.0109 C96,314.0109 104,322.0109 104,330.0109 L104,334.0109 C104,338.0109 100,342.0109 96,342.0109 L58,342.0109 C54,342.0109 50,338.0109 50,334.0109 L50,330.0109 C50,322.0109 58,314.0109 66,314.0109 C70,318.0109 73,318.0109 77,318.0109 " fill="#FFFFFF" style="stroke:#526D82;stroke-width:0.5;"/><text fill="#000000" font-family="Microsoft YaHei" font-size="13" lengthAdjust="spacing" textLength="52" x="51" y="354.5778">&#31995;&#32479;&#36816;&#32500;</text></g><g id="elem_UC_Login"><ellipse cx="553.8823" cy="821.2657" fill="#EEF4FB" rx="70.8823" ry="22.7548" style="stroke:#526D82;stroke-width:0.5;"/><text fill="#000000" font-family="Microsoft YaHei" font-size="12" lengthAdjust="spacing" textLength="84" x="511.8823" y="816.4356">&#36523;&#20221;&#26680;&#39564;&#19982;&#30331;&#24405;</text><text fill="#000000" font-family="Microsoft YaHei" font-size="12" lengthAdjust="spacing" textLength="58" x="524.8823" y="830.4044">F1.1-F1.3</text></g><g id="elem_UC_Profile"><ellipse cx="281.897" cy="572.6431" fill="#EEF4FB" rx="62.397" ry="32.6322" style="stroke:#526D82;stroke-width:0.5;"/><text fill="#000000" font-family="Microsoft YaHei" font-size="12" lengthAdjust="spacing" textLength="72" x="245.897" y="560.8287">&#20010;&#24615;&#21270;&#20449;&#24687;&#19982;</text><text fill="#000000" font-family="Microsoft YaHei" font-size="12" lengthAdjust="spacing" textLength="72" x="245.897" y="574.7974">&#19987;&#23646;&#25253;&#21040;&#28165;&#21333;</text><text fill="#000000" font-family="Microsoft YaHei" font-size="12" lengthAdjust="spacing" textLength="58" x="252.897" y="588.7662">F1.4-F1.6</text></g><g id="elem_UC_Checkin"><ellipse cx="281.897" cy="655.6431" fill="#EEF4FB" rx="62.397" ry="32.6322" style="stroke:#526D82;stroke-width:0.5;"/><text fill="#000000" font-family="Microsoft YaHei" font-size="12" lengthAdjust="spacing" textLength="72" x="245.897" y="643.8287">&#25253;&#21040;&#27493;&#39588;&#24341;&#23548;</text><text fill="#000000" font-family="Microsoft YaHei" font-size="12" lengthAdjust="spacing" textLength="60" x="251.897" y="657.7974">&#19982;&#36827;&#24230;&#25171;&#21345;</text><text fill="#000000" font-family="Microsoft YaHei" font-size="12" lengthAdjust="spacing" textLength="58" x="252.897" y="671.7662">F2.1-F2.5</text></g><g id="elem_UC_Material"><ellipse cx="281.9117" cy="738.6431" fill="#EEF4FB" rx="53.9117" ry="32.6322" style="stroke:#526D82;stroke-width:0.5;"/><text fill="#000000" font-family="Microsoft YaHei" font-size="12" lengthAdjust="spacing" textLength="60" x="251.9117" y="726.8287">&#26448;&#26009;&#19982;&#32564;&#36153;</text><text fill="#000000" font-family="Microsoft YaHei" font-size="12" lengthAdjust="spacing" textLength="48" x="257.9117" y="740.7974">&#24322;&#24120;&#22788;&#29702;</text><text fill="#000000" font-family="Microsoft YaHei" font-size="12" lengthAdjust="spacing" textLength="58" x="252.9117" y="754.7662">F2.6-F2.9</text></g><g id="elem_UC_QA"><ellipse cx="281.8823" cy="406.6431" fill="#EEF4FB" rx="70.8823" ry="32.6322" style="stroke:#526D82;stroke-width:0.5;"/><text fill="#000000" font-family="Microsoft YaHei" font-size="12" lengthAdjust="spacing" textLength="72" x="245.8823" y="394.8287">&#26234;&#33021;&#38382;&#31572;&#21672;&#35810;</text><text fill="#000000" font-family="Microsoft YaHei" font-size="12" lengthAdjust="spacing" textLength="84" x="239.8823" y="408.7974">&#65288;&#25991;&#23383; / &#35821;&#38899;&#65289;</text><text fill="#000000" font-family="Microsoft YaHei" font-size="12" lengthAdjust="spacing" textLength="58" x="252.8823" y="422.7662">F3.1-F3.9</text></g><g id="elem_UC_Nav"><ellipse cx="553.9031" cy="406.2657" fill="#EEF4FB" rx="82.9031" ry="22.7548" style="stroke:#526D82;stroke-width:0.5;"/><text fill="#000000" font-family="Microsoft YaHei" font-size="12" lengthAdjust="spacing" textLength="101" x="503.4031" y="401.4356">&#26657;&#22253; AR / 3D &#23548;&#33322;</text><text fill="#000000" font-family="Microsoft YaHei" font-size="12" lengthAdjust="spacing" textLength="66" x="520.9031" y="415.4044">F4.1-F4.10</text></g><g id="elem_UC_Aid"><ellipse cx="281.8823" cy="821.6431" fill="#EEF4FB" rx="70.8823" ry="32.6322" style="stroke:#526D82;stroke-width:0.5;"/><text fill="#000000" font-family="Microsoft YaHei" font-size="12" lengthAdjust="spacing" textLength="84" x="239.8823" y="809.8287">&#36164;&#21161;&#25919;&#31574;&#26597;&#35810;&#19982;</text><text fill="#000000" font-family="Microsoft YaHei" font-size="12" lengthAdjust="spacing" textLength="72" x="245.8823" y="823.7974">&#32511;&#33394;&#36890;&#36947;&#30003;&#35831;</text><text fill="#000000" font-family="Microsoft YaHei" font-size="12" lengthAdjust="spacing" textLength="58" x="252.8823" y="837.7662">F5.1-F5.7</text></g><g id="elem_UC_Life"><ellipse cx="282.0538" cy="904.6431" fill="#EEF4FB" rx="68.0538" ry="32.6322" style="stroke:#526D82;stroke-width:0.5;"/><text fill="#000000" font-family="Microsoft YaHei" font-size="12" lengthAdjust="spacing" textLength="72" x="246.0538" y="892.8287">&#29983;&#27963;&#26381;&#21153;&#21150;&#29702;</text><text fill="#000000" font-family="Microsoft YaHei" font-size="12" lengthAdjust="spacing" textLength="80" x="242.0538" y="906.7974">&#25253;&#20462;/&#32564;&#36153;/&#23601;&#21307;</text><text fill="#000000" font-family="Microsoft YaHei" font-size="12" lengthAdjust="spacing" textLength="66" x="249.0538" y="920.7662">F6.1-F6.10</text></g><g id="elem_UC_Safety"><ellipse cx="281.897" cy="489.6431" fill="#EEF4FB" rx="62.397" ry="32.6322" style="stroke:#526D82;stroke-width:0.5;"/><text fill="#000000" font-family="Microsoft YaHei" font-size="12" lengthAdjust="spacing" textLength="60" x="251.897" y="477.8287">&#23433;&#20840;&#23398;&#20064;&#19982;</text><text fill="#000000" font-family="Microsoft YaHei" font-size="12" lengthAdjust="spacing" textLength="72" x="245.897" y="491.7974">&#32039;&#24613;&#30005;&#35805;&#25320;&#21495;</text><text fill="#000000" font-family="Microsoft YaHei" font-size="12" lengthAdjust="spacing" textLength="58" x="252.897" y="505.7662">F7.1-F7.6</text></g><g id="elem_UC_Club"><ellipse cx="281.8823" cy="978.2657" fill="#EEF4FB" rx="70.8823" ry="22.7548" style="stroke:#526D82;stroke-width:0.5;"/><text fill="#000000" font-family="Microsoft YaHei" font-size="12" lengthAdjust="spacing" textLength="84" x="239.8823" y="973.4356">&#31038;&#22242;&#19982;&#20837;&#23398;&#36866;&#24212;</text><text fill="#000000" font-family="Microsoft YaHei" font-size="12" lengthAdjust="spacing" textLength="58" x="252.8823" y="987.4044">F8.1-F8.5</text></g><g id="elem_UC_Transfer"><ellipse cx="281.9117" cy="130.6431" fill="#EEF4FB" rx="53.9117" ry="32.6322" style="stroke:#526D82;stroke-width:0.5;"/><text fill="#000000" font-family="Microsoft YaHei" font-size="12" lengthAdjust="spacing" textLength="60" x="251.9117" y="118.8287">&#26410;&#35299;&#31572;&#38382;&#39064;</text><text fill="#000000" font-family="Microsoft YaHei" font-size="12" lengthAdjust="spacing" textLength="60" x="251.9117" y="132.7974">&#36716;&#20154;&#24037;&#22788;&#29702;</text><text fill="#000000" font-family="Microsoft YaHei" font-size="12" lengthAdjust="spacing" textLength="35" x="264.4117" y="146.7662">F3.11</text></g><g id="elem_UC_Content"><ellipse cx="282.0746" cy="268.2657" fill="#EEF4FB" rx="80.0746" ry="22.7548" style="stroke:#526D82;stroke-width:0.5;"/><text fill="#000000" font-family="Microsoft YaHei" font-size="12" lengthAdjust="spacing" textLength="84" x="240.0746" y="263.4356">&#20869;&#23481;&#19982;&#35805;&#26415;&#31649;&#29702;</text><text fill="#000000" font-family="Microsoft YaHei" font-size="12" lengthAdjust="spacing" textLength="97" x="233.5746" y="277.4044">F9.3-F9.5&#12289;F9.8</text></g><g id="elem_UC_Stats"><ellipse cx="281.897" cy="204.2657" fill="#EEF4FB" rx="62.397" ry="22.7548" style="stroke:#526D82;stroke-width:0.5;"/><text fill="#000000" font-family="Microsoft YaHei" font-size="12" lengthAdjust="spacing" textLength="72" x="245.897" y="199.4356">&#25968;&#25454;&#32479;&#35745;&#30475;&#26495;</text><text fill="#000000" font-family="Microsoft YaHei" font-size="12" lengthAdjust="spacing" textLength="58" x="252.897" y="213.4044">F9.6-F9.7</text></g><g id="elem_UC_Rbac"><ellipse cx="553.9117" cy="204.6431" fill="#EEF4FB" rx="53.9117" ry="32.6322" style="stroke:#526D82;stroke-width:0.5;"/><text fill="#000000" font-family="Microsoft YaHei" font-size="12" lengthAdjust="spacing" textLength="60" x="523.9117" y="192.8287">&#20998;&#26435;&#38480;&#31649;&#29702;</text><text fill="#000000" font-family="Microsoft YaHei" font-size="12" lengthAdjust="spacing" textLength="56" x="525.9117" y="206.7974">&#65288;RBAC&#65289;</text><text fill="#000000" font-family="Microsoft YaHei" font-size="12" lengthAdjust="spacing" textLength="27" x="540.4117" y="220.7662">F9.2</text></g><g id="elem_UC_Ops"><ellipse cx="282.0452" cy="332.2657" fill="#EEF4FB" rx="97.0452" ry="22.7548" style="stroke:#526D82;stroke-width:0.5;"/><text fill="#000000" font-family="Microsoft YaHei" font-size="12" lengthAdjust="spacing" textLength="84" x="240.0452" y="327.4356">&#31995;&#32479;&#37197;&#32622;&#19982;&#36816;&#32500;</text><text fill="#000000" font-family="Microsoft YaHei" font-size="12" lengthAdjust="spacing" textLength="121" x="221.5452" y="341.4044">F9.10&#12289;F11.6-F11.7</text></g><polygon fill="#526D82" points="550.6105,844.6067,545.4599,853.0014,549.9519,849.5631,553.3902,854.0551,550.6105,844.6067" style="stroke:#526D82;stroke-width:1.0;"/><path d="M77.6242,817.137 C79.8808,880.0265 94.4596,991.465 166,1043.5109 C269.1474,1118.5511 345.8721,1112.7499 453,1043.5109 C522.7609,998.4231 543.5552,897.7027 549.8202,850.5544 " fill="none" style="stroke:#526D82;stroke-width:1.0;"/><polygon fill="#526D82" points="219.4113,589.381,209.5688,589.0295,214.7727,591.2473,212.5549,596.4513,219.4113,589.381" style="stroke:#526D82;stroke-width:1.0;"/><path d="M96.9931,725.7945 C113.5609,690.8572 140.6495,643.714 177,613.5109 C189.3153,603.2784 198.9275,597.6225 213.845,591.6206 " fill="none" style="stroke:#526D82;stroke-width:1.0;"/><polygon fill="#526D82" points="219.2759,677.381,209.4306,677.1169,214.654,679.2884,212.4825,684.5119,219.2759,677.381" style="stroke:#526D82;stroke-width:1.0;"/><path d="M116.3834,739.1739 C134.1065,725.2209 155.8716,709.4085 177,697.5109 C190.2344,690.0585 199.5127,685.5374 213.7297,679.6699 " fill="none" style="stroke:#526D82;stroke-width:1.0;"/><polygon fill="#526D82" points="227.6683,747.1806,218.1431,744.6765,222.7331,747.9829,219.4267,752.5729,227.6683,747.1806" style="stroke:#526D82;stroke-width:1.0;"/><path d="M116.1827,765.3039 C147.6522,760.1882 186.7196,753.8373 221.746,748.1433 " fill="none" style="stroke:#526D82;stroke-width:1.0;"/><polygon fill="#526D82" points="210.9443,424.0655,201.0961,424.1772,206.3986,426.1479,204.4279,431.4504,210.9443,424.0655" style="stroke:#526D82;stroke-width:1.0;"/><path d="M79.8026,725.937 C84.9102,657.0839 104.2535,526.2422 177,447.5109 C186.2856,437.4614 192.8893,432.3364 205.4894,426.5644 " fill="none" style="stroke:#526D82;stroke-width:1.0;"/><polygon fill="#526D82" points="548.0266,429.7408,542.2309,437.7038,546.9798,434.63,550.0536,439.3788,548.0266,429.7408" style="stroke:#526D82;stroke-width:1.0;"/><path d="M82.167,817.4669 C90.0277,873.9165 112.5832,967.4695 177,1010.5109 C251.6478,1060.3884 302.0335,1056.73 379,1010.5109 C438.9999,974.4805 428.9675,937.2423 453,871.5109 C453.9802,868.8299 526.704,529.3222 546.7704,435.6078 " fill="none" style="stroke:#526D82;stroke-width:1.0;"/><polygon fill="#526D82" points="210.9435,804.2556,203.1613,798.2193,206.0886,803.0598,201.2481,805.9871,210.9435,804.2556" style="stroke:#526D82;stroke-width:1.0;"/><path d="M116.1827,780.9155 C142.8284,787.4785 173.3412,794.994 205.1176,802.8207 " fill="none" style="stroke:#526D82;stroke-width:1.0;"/><polygon fill="#526D82" points="213.7308,882.2666,207.0052,875.0718,209.1272,880.3155,203.8835,882.4375,213.7308,882.2666" style="stroke:#526D82;stroke-width:1.0;"/><path d="M116.0945,813.2608 C133.4246,830.4894 154.9637,849.6293 177,863.5109 C188.3307,870.6486 195.5845,874.5759 208.2065,879.9253 " fill="none" style="stroke:#526D82;stroke-width:1.0;"/><polygon fill="#526D82" points="219.2367,504.5572,209.3958,504.162,214.5898,506.403,212.3489,511.597,219.2367,504.5572" style="stroke:#526D82;stroke-width:1.0;"/><path d="M85.5697,725.9961 C96.7028,672.5373 122.4014,584.3371 177,530.5109 C188.6787,518.9975 198.4023,512.8325 213.6605,506.7721 " fill="none" style="stroke:#526D82;stroke-width:1.0;"/><polygon fill="#526D82" points="210.771,964.9084,203.7302,958.0217,206.0847,963.1653,200.9411,965.5198,210.771,964.9084" style="stroke:#526D82;stroke-width:1.0;"/><path d="M92.8213,817.0612 C107.9684,856.7056 135.2433,912.9345 177,946.5109 C186.8637,954.4423 193.0644,958.3221 205.1475,962.8166 " fill="none" style="stroke:#526D82;stroke-width:1.0;"/><polygon fill="#526D82" points="210.9435,411.6875,201.6732,408.3616,205.9571,412.056,202.2627,416.3399,210.9435,411.6875" style="stroke:#526D82;stroke-width:1.0;"/><path d="M116.1827,418.6895 C142.8284,416.7207 173.1834,414.4777 204.9598,412.1297 " fill="none" style="stroke:#526D82;stroke-width:1.0;"/><polygon fill="#526D82" points="539.5878,383.3811,538.6254,373.5794,537.1204,379.0323,531.6674,377.5273,539.5878,383.3811" style="stroke:#526D82;stroke-width:1.0;"/><path d="M116.3477,399.9397 C128.4618,391.1665 140.6056,379.9063 148,366.5109 C178.0172,312.1327 130.8572,130.0906 177,88.5109 C210.3472,58.4614 338.8175,68.5014 379,88.5109 C427.8558,112.8394 428.2125,137.8864 453,186.5109 C465.4512,210.9358 460.7396,220.0879 471,245.5109 C491.4857,296.27 519.1827,347.4177 536.6269,378.1626 " fill="none" style="stroke:#526D82;stroke-width:1.0;"/><polygon fill="#526D82" points="219.4498,468.8931,212.1863,462.2416,214.7087,467.305,209.6453,469.8273,219.4498,468.8931" style="stroke:#526D82;stroke-width:1.0;"/><path d="M116.1827,434.3012 C145.2403,444.0348 180.1357,455.7239 213.7605,466.9873 " fill="none" style="stroke:#526D82;stroke-width:1.0;"/><polygon fill="#526D82" points="227.66,97.9289,222.0646,89.8238,223.3931,95.3225,217.8944,96.6509,227.66,97.9289" style="stroke:#526D82;stroke-width:1.0;"/><path d="M122.048,33.4171 C153.066,52.3641 189.6373,74.7031 222.5397,94.8012 " fill="none" style="stroke:#526D82;stroke-width:1.0;"/><polygon fill="#526D82" points="205.6952,245.4779,198.2834,238.9921,200.9195,243.9972,195.9143,246.6332,205.6952,245.4779" style="stroke:#526D82;stroke-width:1.0;"/><path d="M148.0003,227.2732 C157.7338,230.3985 167.6117,233.5494 177,236.5109 C186.2782,239.4377 190.3013,240.7051 199.9643,243.7011 " fill="none" style="stroke:#526D82;stroke-width:1.0;"/><polygon fill="#526D82" points="219.3258,204.5109,210.3258,200.5109,214.3258,204.5109,210.3258,208.5109,219.3258,204.5109" style="stroke:#526D82;stroke-width:1.0;"/><path d="M148.1453,204.5109 C171.295,204.5109 190.8576,204.5109 213.3258,204.5109 " fill="none" style="stroke:#526D82;stroke-width:1.0;"/><polygon fill="#526D82" points="541.7907,171.8819,542.1769,162.0406,539.9407,167.2367,534.7446,165.0005,541.7907,171.8819" style="stroke:#526D82;stroke-width:1.0;"/><path d="M91.2837,158.7412 C104.164,123.5952 127.5147,77.4775 166,55.5109 C276.7802,-7.7202 340.4446,-4.5033 453,55.5109 C498.9088,79.9893 525.2562,130.3642 539.5708,166.3076 " fill="none" style="stroke:#526D82;stroke-width:1.0;"/><polygon fill="#526D82" points="184.5533,326.3345,175.8274,321.7675,179.5635,326.015,175.3161,329.7512,184.5533,326.3345" style="stroke:#526D82;stroke-width:1.0;"/><path d="M104.5387,321.2104 C125.1733,322.5319 149.1591,324.0679 178.5656,325.9511 " fill="none" style="stroke:#526D82;stroke-width:1.0;"/><polygon fill="#526D82" points="539.5569,798.3105,538.3134,788.5405,536.9655,794.0344,531.4716,792.6866,539.5569,798.3105" style="stroke:#526D82;stroke-width:1.0;"/><path d="M344.6084,594.4577 C356.4839,599.8785 368.4871,606.2498 379,613.5109 C453.1841,664.7489 510.6381,750.5902 536.4473,793.1792 " fill="none" style="stroke:#526D82;stroke-width:1.0;stroke-dasharray:7.0,7.0;"/><text fill="#000000" font-family="Microsoft YaHei" font-size="11" lengthAdjust="spacing" textLength="54" x="398" y="628.7214">&#171;include&#187;</text><polygon fill="#526D82" points="524.3717,798.2864,519.7937,789.5662,520.4499,795.1849,514.8313,795.8411,524.3717,798.2864" style="stroke:#526D82;stroke-width:1.0;"/><path d="M344.6125,680.2076 C356.2472,685.5005 368.1597,691.3647 379,697.5109 C433.0498,728.1561 486.1544,768.0623 519.6656,794.5645 " fill="none" style="stroke:#526D82;stroke-width:1.0;stroke-dasharray:7.0,7.0;"/><text fill="#000000" font-family="Microsoft YaHei" font-size="11" lengthAdjust="spacing" textLength="54" x="398" y="705.7214">&#171;include&#187;</text><polygon fill="#526D82" points="482.6486,821.5109,473.6486,817.5109,477.6486,821.5109,473.6486,825.5109,482.6486,821.5109" style="stroke:#526D82;stroke-width:1.0;"/><path d="M353.2345,821.5109 C393.0781,821.5109 436.7857,821.5109 476.6486,821.5109 " fill="none" style="stroke:#526D82;stroke-width:1.0;stroke-dasharray:7.0,7.0;"/><text fill="#000000" font-family="Microsoft YaHei" font-size="11" lengthAdjust="spacing" textLength="54" x="398" y="818.7214">&#171;include&#187;</text><polygon fill="#526D82" points="482.9586,843.0422,473.1805,841.8633,478.1793,844.5114,475.5312,849.5101,482.9586,843.0422" style="stroke:#526D82;stroke-width:1.0;"/><path d="M350.0885,883.8874 C390.539,871.4526 436.2536,857.3996 477.2234,844.8052 " fill="none" style="stroke:#526D82;stroke-width:1.0;stroke-dasharray:7.0,7.0;"/><text fill="#000000" font-family="Microsoft YaHei" font-size="11" lengthAdjust="spacing" textLength="54" x="398" y="849.7214">&#171;include&#187;</text><polygon fill="#526D82" points="499.8864,217.1008,490.2065,215.2845,495.0212,218.254,492.0517,223.0688,499.8864,217.1008" style="stroke:#526D82;stroke-width:1.0;"/><path d="M362.1846,249.7413 C406.5317,239.2293 454.7937,227.7895 494.0482,218.4847 " fill="none" style="stroke:#526D82;stroke-width:1.0;stroke-dasharray:7.0,7.0;"/><text fill="#000000" font-family="Microsoft YaHei" font-size="11" lengthAdjust="spacing" textLength="54" x="398" y="226.7214">&#171;include&#187;</text><polygon fill="#526D82" points="499.8625,204.5109,490.8625,200.5109,494.8625,204.5109,490.8625,208.5109,499.8625,204.5109" style="stroke:#526D82;stroke-width:1.0;"/><path d="M344.605,204.5109 C391.4527,204.5109 449.2423,204.5109 493.8625,204.5109 " fill="none" style="stroke:#526D82;stroke-width:1.0;stroke-dasharray:7.0,7.0;"/><text fill="#000000" font-family="Microsoft YaHei" font-size="11" lengthAdjust="spacing" textLength="54" x="398" y="201.7214">&#171;include&#187;</text><polygon fill="#526D82" points="470.659,406.5109,461.659,402.5109,465.659,406.5109,461.659,410.5109,470.659,406.5109" style="stroke:#526D82;stroke-width:1.0;"/><path d="M353.2345,406.5109 C389.1719,406.5109 427.134,406.5109 464.659,406.5109 " fill="none" style="stroke:#526D82;stroke-width:1.0;stroke-dasharray:7.0,7.0;"/><text fill="#000000" font-family="Microsoft YaHei" font-size="11" lengthAdjust="spacing" textLength="52" x="399" y="403.7214">&#171;extend&#187;</text><rect fill="none" height="75.1875" id="_legend" rx="7.5" ry="7.5" style="stroke:#000000;stroke-width:1.0;" width="500" x="72" y="1103.7969"/><text fill="#000000" font-family="Microsoft YaHei" font-size="14" font-weight="bold" lengthAdjust="spacing" textLength="28" x="77" y="1121.792">&#35828;&#26126;</text><text fill="#000000" font-family="Microsoft YaHei" font-size="14" lengthAdjust="spacing" textLength="301" x="77" y="1138.0889">&#183; &#29992;&#20363;&#32534;&#21495; F x.y &#19982; docs/&#21151;&#33021;&#28165;&#21333;.md &#19968;&#19968;&#23545;&#24212;</text><text fill="#000000" font-family="Microsoft YaHei" font-size="14" lengthAdjust="spacing" textLength="490" x="77" y="1154.3857">&#183; M10 &#25968;&#23383;&#20154;&#24418;&#35937;&#19982;&#22810;&#31471;&#36866;&#37197;&#20026;&#36328;&#26381;&#21153;&#33021;&#21147;&#65292;&#19981;&#21333;&#21015;&#20026;&#29992;&#20363;&#65292;&#20307;&#29616;&#22312;&#21508;&#31471;&#20132;&#20114;&#20013;</text><text fill="#000000" font-family="Microsoft YaHei" font-size="14" lengthAdjust="spacing" textLength="261" x="77" y="1170.6826">&#183; &#24403;&#21069;&#20026; M3 &#39592;&#26550;&#38454;&#27573;&#65292;&#19994;&#21153;&#29992;&#20363;&#22343;&#24453;&#24320;&#21457;</text><!--SRC=[hLRhJnDP5Fy-VyLTziCccXPA0M7ZcfH7tG_2ggZ99YHcR8TIRMV8T8go6vEY8ELHG2b57XNAWgreMr2KqWTD_5FMtZlJJ_mBU-vCfqzTTXERPg3ddD_ld7jUTtuO5Lc7cqKkTbpmIiZZvYIMPvcVq2_VumCyU3UAuw_bu9QINo2X0vpCukmAsGpWsGXPES3nrK8wBN_8o9ajzBSl25-a_PA3iSBf7Duu1Gum98442U-HzD9PTjqks3pDU7PBUPeZgIaSM36wxMZCP6mvo_gLw0jbvhqIdK2Veor6yrbsdiGYEBogIKndsHdAbtfFjfP9w0Hd5m5pVU0gkeW6xrn5u4wUcGOZy09s2DrdnrXakC-AQDJ5yfBNxJBI7mRR22jwE0dTlcKrT2A3DCexuEaPSw0Miw7k0CPHWAbin1z2TmPHZs3dllZchrF6s_tNllW2PEODFbn15fTqiHSLToQLg1ylBT1SJQUrcBvRHLpSi8Ga0ObEnuY4x4wHiqbEWMSy3vpyA2koRdIFjJrmY8ANj_S8Ba54FrhLJvM5dHjclIx9Al3I0ElcK5E_qoOA7W6OVsT_vPnDLRQU4TOkF7H2VePPbuUhqbX4KNXOSj7Usj7RsLglf0u6dNzmo6IgKh4sIH07fN4NXzY7d4TmS_LAz2U3KFStZW4QGRHpOgrdX2hEpCpZAaQlXxEn7kxhd7rzrZPhzt_WRAtXf4bdUOVh6wnMYxN7sbVFsjLcCNTtwgpg-Uy9BdiDyO0WSLyxU5TVHxrLDNLlLxUvpL9dKPrzHd9AuEz_3FFduuP1PhJYD04IA8Pu63tvtRj2oWScn7yCOzU4M0-ot1sKl7QEbtHxdFXKNCcZPgGayZYnemBnuhwIpE0NCIMvKm5UzNAU2Yo_IYRpYc-A8a-dQB3FNsfU5mxmPbgE1-NGymhuZk3oyXB7YMM2-6ko7P4J4NdfcGu56JxUQwRJERVRNCY7SU1jCmYBQrLXMEnk9w-pQ5bGyajovgYa_stKmp2L7cWwDvjDq2TGUBqLcvJqsq8cHxPJnVtvGcf1NilWtCeGRpKPJGPuc5K_jtlkNXCS44WLi93Q9xuedWyLyX4oaGJi45z8BUF3LsHs3_iFj7sgChLHfWwTwRee33jTN3LN2H7VA-xlGk0GFkLQKF8REFsQp2pZG0I8Mcb8hSPsdQXdXBCzg0sAX9T8Q8sU8tka79qCyJZx1ATIU7SI4gzIT52ABfsYdvKuqScwQZZMqd0T55SJK5MjAzHoaT0qv94sG39UtFe09G8-Cmt9NE6xOQbXsexWZJYot0IKkHV1iHJ_Fg3QA0eUBJfiW1shgSd7IJpxXWJpSZn4jlOW0ZMxSYOF5rBHjrwSM9Q37vJaCN2rKwvsuoMTokAqLrF1T92ZZDO9UFQLcWN8TY6VQDPIr8mF3l5y1fWwA5D7LLJNdCCrLSA96JmLWmujd6nh0Hr5YMzF3dvKac4o5yEBDA1BbEPIfTo3x30dZTV4j7kAD-YHyDGUxNVV4vmE0hAJ8Zkhwklotgj9v-Q-4lqBgWArAUx042cvTz3NC4Jb-a8zJ3hybiZodc6OmUeZF9l2YHFQMX3nPb8RIC1r6Sq6UBH_yKt0dyvo1B2twFQe3a9zWQ1Z2DZDEHBEg_0E2YyNOL1Y9K-DN_yp4dvQN5lIFK93tUosz6XTr6LirP4tuSgioPKwjCMfW9nBg1D1Pr-5c5fei2OJTGtFic-w4HupJ7dr8OFXIcM06yJwD3OezEbgK9Hdfa43tTyWewtT8AHDsXWWRRS6QQbz6iEZpS6KzdHD03KIpNsDgCJ8LArfNLLk6QQqUSlUIerG9zRgN2TKIyYegraNgLkwacnaD5PAWdv6boyxUPiBZdVb2bF9_3bMaCDpB6X2ptEbdKkteg4t6gcd_7UJ6nPT3mbNrTmZ8BQ35buJ7V0Vl618ak26thvmGKaUaPSB5ox03tgtgxUwd0t1_a1MzCWuZg3JqLTVpU66XozEdi36qD3zfXPKlk9mRaSvZD3Dihiklqt2Pe79AQJIod5CMu50XcStu5M-a0e09VQlWbOBW0fpo-fz7iDBam0lf7SBwHU5L5ppX7FBU8QoeNupAkx7oAjFnPUVIEAZIhSExANta_0qXdU4h0ylFcVeoRK4CFy0]--></g></svg>