<?xml version="1.0" encoding="us-ascii" standalone="no"?><svg xmlns="http://www.w3.org/2000/svg" xmlns:xlink="http://www.w3.org/1999/xlink" contentStyleType="text/css" height="737px" preserveAspectRatio="none" style="width:2030px;height:737px;background:#FFFFFF;" version="1.1" viewBox="0 0 2030 737" width="2030px" zoomAndPan="magnify"><defs/><g><text fill="#000000" font-family="Microsoft YaHei" font-size="14" font-weight="bold" lengthAdjust="spacing" textLength="336" x="839" y="22.9951">&#21151;&#33021;&#26550;&#26500;&#23376;&#22270; 2 &#183; &#26234;&#33021;&#38382;&#31572;&#19982;&#26657;&#22253;&#23548;&#33322;&#65288;M3 + M4&#65289;</text><!--cluster qa-service : 8101?M3 ????????????--><g id="cluster_qa-service : 8101&#12288;M3 &#26234;&#33021;&#38382;&#31572;&#65288;&#25968;&#23383;&#20154;&#20027;&#20132;&#20114;&#65289;"><path d="M16.5,134.2969 L315.5,134.2969 A3.75,3.75 0 0 1 318,136.7969 L325,154.2656 L1215.5,154.2656 A2.5,2.5 0 0 1 1218,156.7656 L1218,374.7969 A2.5,2.5 0 0 1 1215.5,377.2969 L16.5,377.2969 A2.5,2.5 0 0 1 14,374.7969 L14,136.7969 A2.5,2.5 0 0 1 16.5,134.2969 " fill="#FAFCFE" style="stroke:#94A3B8;stroke-width:1.5;"/><line style="stroke:#94A3B8;stroke-width:1.5;" x1="14" x2="325" y1="154.2656" y2="154.2656"/><text fill="#1E293B" font-family="Microsoft YaHei" font-size="12" font-weight="bold" lengthAdjust="spacing" textLength="298" x="18" y="147.4355">qa-service : 8101&#12288;M3 &#26234;&#33021;&#38382;&#31572;&#65288;&#25968;&#23383;&#20154;&#20027;&#20132;&#20114;&#65289;</text></g><!--cluster ?????--><g id="cluster_&#38382;&#31572;&#24211;&#31649;&#29702;"><path d="M1028.5,158.2969 L1089.5,158.2969 A3.75,3.75 0 0 1 1092,160.7969 L1099,178.2656 L1207.5,178.2656 A2.5,2.5 0 0 1 1210,180.7656 L1210,245.7969 A2.5,2.5 0 0 1 1207.5,248.2969 L1028.5,248.2969 A2.5,2.5 0 0 1 1026,245.7969 L1026,160.7969 A2.5,2.5 0 0 1 1028.5,158.2969 " fill="#FAFCFE" style="stroke:#94A3B8;stroke-width:1.5;"/><line style="stroke:#94A3B8;stroke-width:1.5;" x1="1026" x2="1099" y1="178.2656" y2="178.2656"/><text fill="#1E293B" font-family="Microsoft YaHei" font-size="12" font-weight="bold" lengthAdjust="spacing" textLength="60" x="1030" y="171.4355">&#38382;&#31572;&#24211;&#31649;&#29702;</text></g><!--cluster ????--><g id="cluster_&#38382;&#39064;&#29702;&#35299;"><path d="M460.5,158.2969 L509.5,158.2969 A3.75,3.75 0 0 1 512,160.7969 L519,178.2656 L1015.5,178.2656 A2.5,2.5 0 0 1 1018,180.7656 L1018,245.7969 A2.5,2.5 0 0 1 1015.5,248.2969 L460.5,248.2969 A2.5,2.5 0 0 1 458,245.7969 L458,160.7969 A2.5,2.5 0 0 1 460.5,158.2969 " fill="#FAFCFE" style="stroke:#94A3B8;stroke-width:1.5;"/><line style="stroke:#94A3B8;stroke-width:1.5;" x1="458" x2="519" y1="178.2656" y2="178.2656"/><text fill="#1E293B" font-family="Microsoft YaHei" font-size="12" font-weight="bold" lengthAdjust="spacing" textLength="48" x="462" y="171.4355">&#38382;&#39064;&#29702;&#35299;</text></g><!--cluster ????--><g id="cluster_&#24212;&#31572;&#29983;&#25104;"><path d="M356.5,279.2969 L405.5,279.2969 A3.75,3.75 0 0 1 408,281.7969 L415,299.2656 L729.5,299.2656 A2.5,2.5 0 0 1 732,301.7656 L732,366.7969 A2.5,2.5 0 0 1 729.5,369.2969 L356.5,369.2969 A2.5,2.5 0 0 1 354,366.7969 L354,281.7969 A2.5,2.5 0 0 1 356.5,279.2969 " fill="#FAFCFE" style="stroke:#94A3B8;stroke-width:1.5;"/><line style="stroke:#94A3B8;stroke-width:1.5;" x1="354" x2="415" y1="299.2656" y2="299.2656"/><text fill="#1E293B" font-family="Microsoft YaHei" font-size="12" font-weight="bold" lengthAdjust="spacing" textLength="48" x="358" y="292.4355">&#24212;&#31572;&#29983;&#25104;</text></g><!--cluster ???????--><g id="cluster_&#35821;&#38899;&#19982;&#23454;&#26102;&#36890;&#36947;"><path d="M24.5,164.2969 L109.5,164.2969 A3.75,3.75 0 0 1 112,166.7969 L119,184.2656 L447.5,184.2656 A2.5,2.5 0 0 1 450,186.7656 L450,239.7969 A2.5,2.5 0 0 1 447.5,242.2969 L24.5,242.2969 A2.5,2.5 0 0 1 22,239.7969 L22,166.7969 A2.5,2.5 0 0 1 24.5,164.2969 " fill="#FAFCFE" style="stroke:#94A3B8;stroke-width:1.5;"/><line style="stroke:#94A3B8;stroke-width:1.5;" x1="22" x2="119" y1="184.2656" y2="184.2656"/><text fill="#1E293B" font-family="Microsoft YaHei" font-size="12" font-weight="bold" lengthAdjust="spacing" textLength="84" x="26" y="177.4355">&#35821;&#38899;&#19982;&#23454;&#26102;&#36890;&#36947;</text></g><!--cluster ?????--><g id="cluster_&#36816;&#33829;&#19982;&#25968;&#25454;"><path d="M742.5,285.2969 L803.5,285.2969 A3.75,3.75 0 0 1 806,287.7969 L813,305.2656 L1207.5,305.2656 A2.5,2.5 0 0 1 1210,307.7656 L1210,360.7969 A2.5,2.5 0 0 1 1207.5,363.2969 L742.5,363.2969 A2.5,2.5 0 0 1 740,360.7969 L740,287.7969 A2.5,2.5 0 0 1 742.5,285.2969 " fill="#FAFCFE" style="stroke:#94A3B8;stroke-width:1.5;"/><line style="stroke:#94A3B8;stroke-width:1.5;" x1="740" x2="813" y1="305.2656" y2="305.2656"/><text fill="#1E293B" font-family="Microsoft YaHei" font-size="12" font-weight="bold" lengthAdjust="spacing" textLength="60" x="744" y="298.4355">&#36816;&#33829;&#19982;&#25968;&#25454;</text></g><!--cluster navigation-service : 8103?M4 ?? AR / 3D ??--><g id="cluster_navigation-service : 8103&#12288;M4 &#26657;&#22253; AR / 3D &#23548;&#33322;"><path d="M973.5,406.2969 L1289.5,406.2969 A3.75,3.75 0 0 1 1292,408.7969 L1299,426.2656 L2020.5,426.2656 A2.5,2.5 0 0 1 2023,428.7656 L2023,624.7969 A2.5,2.5 0 0 1 2020.5,627.2969 L973.5,627.2969 A2.5,2.5 0 0 1 971,624.7969 L971,408.7969 A2.5,2.5 0 0 1 973.5,406.2969 " fill="#FAFCFE" style="stroke:#94A3B8;stroke-width:1.5;"/><line style="stroke:#94A3B8;stroke-width:1.5;" x1="971" x2="1299" y1="426.2656" y2="426.2656"/><text fill="#1E293B" font-family="Microsoft YaHei" font-size="12" font-weight="bold" lengthAdjust="spacing" textLength="315" x="975" y="419.4355">navigation-service : 8103&#12288;M4 &#26657;&#22253; AR / 3D &#23548;&#33322;</text></g><!--cluster ?????--><g id="cluster_&#22320;&#22270;&#19982;&#26816;&#32034;"><path d="M1715.5,430.2969 L1776.5,430.2969 A3.75,3.75 0 0 1 1779,432.7969 L1786,450.2656 L2012.5,450.2656 A2.5,2.5 0 0 1 2015,452.7656 L2015,505.7969 A2.5,2.5 0 0 1 2012.5,508.2969 L1715.5,508.2969 A2.5,2.5 0 0 1 1713,505.7969 L1713,432.7969 A2.5,2.5 0 0 1 1715.5,430.2969 " fill="#FAFCFE" style="stroke:#94A3B8;stroke-width:1.5;"/><line style="stroke:#94A3B8;stroke-width:1.5;" x1="1713" x2="1786" y1="450.2656" y2="450.2656"/><text fill="#1E293B" font-family="Microsoft YaHei" font-size="12" font-weight="bold" lengthAdjust="spacing" textLength="60" x="1717" y="443.4355">&#22320;&#22270;&#19982;&#26816;&#32034;</text></g><!--cluster ????--><g id="cluster_&#36335;&#24452;&#35268;&#21010;"><path d="M1329.5,430.2969 L1378.5,430.2969 A3.75,3.75 0 0 1 1381,432.7969 L1388,450.2656 L1702.5,450.2656 A2.5,2.5 0 0 1 1705,452.7656 L1705,616.7969 A2.5,2.5 0 0 1 1702.5,619.2969 L1329.5,619.2969 A2.5,2.5 0 0 1 1327,616.7969 L1327,432.7969 A2.5,2.5 0 0 1 1329.5,430.2969 " fill="#FAFCFE" style="stroke:#94A3B8;stroke-width:1.5;"/><line style="stroke:#94A3B8;stroke-width:1.5;" x1="1327" x2="1388" y1="450.2656" y2="450.2656"/><text fill="#1E293B" font-family="Microsoft YaHei" font-size="12" font-weight="bold" lengthAdjust="spacing" textLength="48" x="1331" y="443.4355">&#36335;&#24452;&#35268;&#21010;</text></g><!--cluster ????--><g id="cluster_&#20132;&#20114;&#21576;&#29616;"><path d="M981.5,430.2969 L1030.5,430.2969 A3.75,3.75 0 0 1 1033,432.7969 L1040,450.2656 L1316.5,450.2656 A2.5,2.5 0 0 1 1319,452.7656 L1319,616.7969 A2.5,2.5 0 0 1 1316.5,619.2969 L981.5,619.2969 A2.5,2.5 0 0 1 979,616.7969 L979,432.7969 A2.5,2.5 0 0 1 981.5,430.2969 " fill="#FAFCFE" style="stroke:#94A3B8;stroke-width:1.5;"/><line style="stroke:#94A3B8;stroke-width:1.5;" x1="979" x2="1040" y1="450.2656" y2="450.2656"/><text fill="#1E293B" font-family="Microsoft YaHei" font-size="12" font-weight="bold" lengthAdjust="spacing" textLength="48" x="983" y="443.4355">&#20132;&#20114;&#21576;&#29616;</text></g><!--entity ENTRY--><g id="elem_ENTRY"><rect fill="#EEF4FB" height="45.6094" rx="2.5" ry="2.5" style="stroke:#526D82;stroke-width:0.5;" width="106" x="1104" y="49.2969"/><text fill="#000000" font-family="Microsoft YaHei" font-size="11" lengthAdjust="spacing" textLength="66" x="1114" y="69.5073">&#25968;&#23383;&#20154;&#20132;&#20114;&#31471;</text><text fill="#000000" font-family="Microsoft YaHei" font-size="11" lengthAdjust="spacing" textLength="86" x="1114" y="82.312">&#23567;&#31243;&#24207; / PC &#22823;&#23631;</text></g><!--entity DB--><g id="elem_DB"><path d="M776.5,567.2969 C776.5,557.2969 862,557.2969 862,557.2969 C862,557.2969 947.5,557.2969 947.5,567.2969 L947.5,608.8906 C947.5,618.8906 862,618.8906 862,618.8906 C862,618.8906 776.5,618.8906 776.5,608.8906 L776.5,567.2969 " fill="#E8F3EC" style="stroke:#526D82;stroke-width:0.5;"/><path d="M776.5,567.2969 C776.5,577.2969 862,577.2969 862,577.2969 C862,577.2969 947.5,577.2969 947.5,567.2969 " fill="none" style="stroke:#526D82;stroke-width:0.5;"/><text fill="#000000" font-family="Microsoft YaHei" font-size="14" lengthAdjust="spacing" textLength="105" x="786.5" y="594.292">MySQL &#183; yingxin</text><text fill="#000000" font-family="Microsoft YaHei" font-size="14" lengthAdjust="spacing" textLength="151" x="786.5" y="610.5889">&#38382;&#31572;&#24211; / &#20250;&#35805; / POI &#25968;&#25454;</text></g><!--entity RD--><g id="elem_RD"><path d="M648,456.2969 C648,446.2969 741,446.2969 741,446.2969 C741,446.2969 834,446.2969 834,456.2969 L834,497.8906 C834,507.8906 741,507.8906 741,507.8906 C741,507.8906 648,507.8906 648,497.8906 L648,456.2969 " fill="#E8F3EC" style="stroke:#526D82;stroke-width:0.5;"/><path d="M648,456.2969 C648,466.2969 741,466.2969 741,466.2969 C741,466.2969 834,466.2969 834,456.2969 " fill="none" style="stroke:#526D82;stroke-width:0.5;"/><text fill="#000000" font-family="Microsoft YaHei" font-size="14" lengthAdjust="spacing" textLength="39" x="658" y="483.292">Redis</text><text fill="#000000" font-family="Microsoft YaHei" font-size="14" lengthAdjust="spacing" textLength="166" x="658" y="499.5889">&#28909;&#28857;&#38382;&#31572;&#32531;&#23384; &#183; &#20250;&#35805;&#19978;&#19979;&#25991;</text></g><!--entity EXT--><g id="elem_EXT"><rect fill="#EEF4FB" height="58.4141" rx="2.5" ry="2.5" style="stroke:#526D82;stroke-width:0.5;" width="180" x="137" y="448.2969"/><text fill="#000000" font-family="Microsoft YaHei" font-size="11" lengthAdjust="spacing" textLength="44" x="147" y="468.5073">&#22806;&#37096;&#20381;&#36182;</text><text fill="#000000" font-family="Microsoft YaHei" font-size="11" lengthAdjust="spacing" textLength="160" x="147" y="481.312">&#24494;&#20449;&#20154;&#33080;&#26680;&#36523; &#183; ASR / TTS &#21378;&#21830;</text><text fill="#000000" font-family="Microsoft YaHei" font-size="11" lengthAdjust="spacing" textLength="125" x="147" y="494.1167">LLM &#26381;&#21153; &#183; &#33150;&#35759;&#20301;&#32622;&#26381;&#21153;</text></g><g id="elem_GMN54"><path d="M696.5,656.2969 L696.5,730.3203 A0,0 0 0 0 696.5,730.3203 L1027.5,730.3203 A0,0 0 0 0 1027.5,730.3203 L1027.5,666.2969 L1017.5,656.2969 L866,656.2969 L862,619.3656 L858,656.2969 L696.5,656.2969 A0,0 0 0 0 696.5,656.2969 " fill="#FFF9E6" style="stroke:#D9B34A;stroke-width:0.5;"/><path d="M1017.5,656.2969 L1017.5,666.2969 L1027.5,666.2969 L1017.5,656.2969 " fill="#FFF9E6" style="stroke:#D9B34A;stroke-width:0.5;"/><text fill="#000000" font-family="Microsoft YaHei" font-size="11" font-weight="bold" lengthAdjust="spacing" textLength="44" x="702.5" y="671.5073">&#20851;&#38190;&#32422;&#26463;</text><text fill="#000000" font-family="Microsoft YaHei" font-size="11" lengthAdjust="spacing" textLength="280" x="702.5" y="684.312">&#183; &#38382;&#31572;&#24211;&#20248;&#20808;&#21629;&#20013;&#65292;LLM &#20165;&#20828;&#24213;&#65288;&#25511;&#25104;&#26412;&#65292;F3.2 / F3.6&#65289;</text><text fill="#000000" font-family="Microsoft YaHei" font-size="11" lengthAdjust="spacing" textLength="250" x="702.5" y="697.1167">&#183; ASR / TTS &#20379;&#24212;&#21830;&#24453;&#23450;&#65292;&#20808;&#25509;&#21475;&#25277;&#35937; + &#26412;&#22320;&#27169;&#25311;</text><text fill="#000000" font-family="Microsoft YaHei" font-size="11" lengthAdjust="spacing" textLength="195" x="702.5" y="709.9214">&#183; &#22320;&#22270;&#26041;&#26696;&#23567;&#31243;&#24207;&#29983;&#24577;&#20248;&#20808;&#33150;&#35759;&#20301;&#32622;&#26381;&#21153;</text><text fill="#000000" font-family="Microsoft YaHei" font-size="11" lengthAdjust="spacing" textLength="310" x="702.5" y="722.7261">&#183; F3.14 WebSocket &#20381;&#36182;&#23578;&#26410;&#24341;&#20837;&#65292;&#23454;&#26102;&#20132;&#20114;&#26242;&#20197; HTTP &#26367;&#20195;</text></g><!--entity F31--><g id="elem_F31"><rect fill="#EEF4FB" height="58.4141" rx="2.5" ry="2.5" style="stroke:#526D82;stroke-width:0.5;" width="167" x="1034.5" y="182.2969"/><text fill="#000000" font-family="Microsoft YaHei" font-size="11" lengthAdjust="spacing" textLength="147" x="1044.5" y="202.5073">&#38382;&#31572;&#26465;&#30446; CRUD &#183; &#20998;&#31867; &#183; &#26631;&#31614;</text><text fill="#000000" font-family="Microsoft YaHei" font-size="11" lengthAdjust="spacing" textLength="56" x="1044.5" y="215.312">&#21551;&#29992; / &#20572;&#29992;</text><text fill="#000000" font-family="Microsoft YaHei" font-size="11" lengthAdjust="spacing" textLength="24" x="1044.5" y="228.1167">F3.1</text></g><!--entity F32--><g id="elem_F32"><rect fill="#EEF4FB" height="58.4141" rx="2.5" ry="2.5" style="stroke:#526D82;stroke-width:0.5;" width="108" x="902" y="182.2969"/><text fill="#000000" font-family="Microsoft YaHei" font-size="11" lengthAdjust="spacing" textLength="88" x="912" y="202.5073">&#39640;&#39057;&#38382;&#21629;&#20013;&#30340;&#26816;&#32034;</text><text fill="#000000" font-family="Microsoft YaHei" font-size="11" lengthAdjust="spacing" textLength="72" x="912" y="215.312">&#20851;&#38190;&#35789; + &#20840;&#25991;</text><text fill="#000000" font-family="Microsoft YaHei" font-size="11" lengthAdjust="spacing" textLength="24" x="912" y="228.1167">F3.2</text></g><!--entity F33--><g id="elem_F33"><rect fill="#EEF4FB" height="45.6094" rx="2.5" ry="2.5" style="stroke:#526D82;stroke-width:0.5;" width="130" x="754" y="188.2969"/><text fill="#000000" font-family="Microsoft YaHei" font-size="11" lengthAdjust="spacing" textLength="110" x="764" y="208.5073">&#24847;&#22270;&#29702;&#35299;&#19982;&#30693;&#35782;&#22495;&#36335;&#30001;</text><text fill="#000000" font-family="Microsoft YaHei" font-size="11" lengthAdjust="spacing" textLength="24" x="764" y="221.312">F3.3</text></g><!--entity F34--><g id="elem_F34"><rect fill="#EEF4FB" height="45.6094" rx="2.5" ry="2.5" style="stroke:#526D82;stroke-width:0.5;" width="75" x="660.5" y="188.2969"/><text fill="#000000" font-family="Microsoft YaHei" font-size="11" lengthAdjust="spacing" textLength="55" x="670.5" y="208.5073">&#21475;&#35821;&#21270;&#25552;&#38382;</text><text fill="#000000" font-family="Microsoft YaHei" font-size="11" lengthAdjust="spacing" textLength="24" x="670.5" y="221.312">F3.4</text></g><!--entity F35--><g id="elem_F35"><rect fill="#EEF4FB" height="45.6094" rx="2.5" ry="2.5" style="stroke:#526D82;stroke-width:0.5;" width="176" x="466" y="188.2969"/><text fill="#000000" font-family="Microsoft YaHei" font-size="11" lengthAdjust="spacing" textLength="156" x="476" y="208.5073">&#22810;&#36718;&#23545;&#35805; &#183; &#36861;&#38382;&#28548;&#28165; &#183; &#27133;&#20301;&#34917;&#20840;</text><text fill="#000000" font-family="Microsoft YaHei" font-size="11" lengthAdjust="spacing" textLength="24" x="476" y="221.312">F3.5</text></g><!--entity F36--><g id="elem_F36"><rect fill="#EEF4FB" height="45.6094" rx="2.5" ry="2.5" style="stroke:#526D82;stroke-width:0.5;" width="166" x="362" y="309.2969"/><text fill="#000000" font-family="Microsoft YaHei" font-size="11" lengthAdjust="spacing" textLength="146" x="372" y="329.5073">LLM &#20828;&#24213;&#65288;&#38382;&#31572;&#24211;&#30693;&#35782;&#22686;&#24378;&#65289;</text><text fill="#000000" font-family="Microsoft YaHei" font-size="11" lengthAdjust="spacing" textLength="24" x="372" y="342.312">F3.6</text></g><!--entity F37--><g id="elem_F37"><rect fill="#EEF4FB" height="58.4141" rx="2.5" ry="2.5" style="stroke:#526D82;stroke-width:0.5;" width="177" x="546.5" y="303.2969"/><text fill="#000000" font-family="Microsoft YaHei" font-size="11" lengthAdjust="spacing" textLength="55" x="556.5" y="323.5073">&#23500;&#23186;&#20307;&#31572;&#26696;</text><text fill="#000000" font-family="Microsoft YaHei" font-size="11" lengthAdjust="spacing" textLength="157" x="556.5" y="336.312">&#22270;&#25991; / &#27969;&#31243;&#22270; / &#35270;&#39057; / &#22320;&#22270;&#28857;&#20301;</text><text fill="#000000" font-family="Microsoft YaHei" font-size="11" lengthAdjust="spacing" textLength="24" x="556.5" y="349.1167">F3.7</text></g><!--entity F38--><g id="elem_F38"><rect fill="#EEF4FB" height="45.6094" rx="2.5" ry="2.5" style="stroke:#526D82;stroke-width:0.5;" width="90" x="352" y="188.2969"/><text fill="#000000" font-family="Microsoft YaHei" font-size="11" lengthAdjust="spacing" textLength="70" x="362" y="208.5073">&#35821;&#38899;&#36755;&#20837; ASR</text><text fill="#000000" font-family="Microsoft YaHei" font-size="11" lengthAdjust="spacing" textLength="24" x="362" y="221.312">F3.8</text></g><!--entity F39--><g id="elem_F39"><rect fill="#EEF4FB" height="45.6094" rx="2.5" ry="2.5" style="stroke:#526D82;stroke-width:0.5;" width="156" x="178" y="188.2969"/><text fill="#000000" font-family="Microsoft YaHei" font-size="11" lengthAdjust="spacing" textLength="136" x="188" y="208.5073">&#35821;&#38899;&#25773;&#25253; TTS&#65288;&#39537;&#21160;&#21475;&#22411;&#65289;</text><text fill="#000000" font-family="Microsoft YaHei" font-size="11" lengthAdjust="spacing" textLength="24" x="188" y="221.312">F3.9</text></g><!--entity F314--><g id="elem_F314"><rect fill="#EEF4FB" height="45.6094" rx="2.5" ry="2.5" style="stroke:#526D82;stroke-width:0.5;" width="129" x="30.5" y="188.2969"/><text fill="#000000" font-family="Microsoft YaHei" font-size="11" lengthAdjust="spacing" textLength="109" x="40.5" y="208.5073">WebSocket &#23454;&#26102;&#20250;&#35805;</text><text fill="#000000" font-family="Microsoft YaHei" font-size="11" lengthAdjust="spacing" textLength="31" x="40.5" y="221.312">F3.14</text></g><!--entity F310--><g id="elem_F310"><rect fill="#EEF4FB" height="45.6094" rx="2.5" ry="2.5" style="stroke:#526D82;stroke-width:0.5;" width="86" x="1116" y="309.2969"/><text fill="#000000" font-family="Microsoft YaHei" font-size="11" lengthAdjust="spacing" textLength="66" x="1126" y="329.5073">&#28909;&#38376;&#38382;&#39064;&#25512;&#33616;</text><text fill="#000000" font-family="Microsoft YaHei" font-size="11" lengthAdjust="spacing" textLength="31" x="1126" y="342.312">F3.10</text></g><!--entity F311--><g id="elem_F311"><rect fill="#EEF4FB" height="45.6094" rx="2.5" ry="2.5" style="stroke:#526D82;stroke-width:0.5;" width="119" x="978.5" y="309.2969"/><text fill="#000000" font-family="Microsoft YaHei" font-size="11" lengthAdjust="spacing" textLength="99" x="988.5" y="329.5073">&#26410;&#35299;&#31572;&#35760;&#24405;&#19982;&#36716;&#20154;&#24037;</text><text fill="#000000" font-family="Microsoft YaHei" font-size="11" lengthAdjust="spacing" textLength="31" x="988.5" y="342.312">F3.11</text></g><!--entity F312--><g id="elem_F312"><rect fill="#EEF4FB" height="45.6094" rx="2.5" ry="2.5" style="stroke:#526D82;stroke-width:0.5;" width="64" x="748" y="309.2969"/><text fill="#000000" font-family="Microsoft YaHei" font-size="11" lengthAdjust="spacing" textLength="44" x="758" y="329.5073">&#28909;&#28857;&#32531;&#23384;</text><text fill="#000000" font-family="Microsoft YaHei" font-size="11" lengthAdjust="spacing" textLength="31" x="758" y="342.312">F3.12</text></g><!--entity F313--><g id="elem_F313"><rect fill="#EEF4FB" height="45.6094" rx="2.5" ry="2.5" style="stroke:#526D82;stroke-width:0.5;" width="130" x="830" y="309.2969"/><text fill="#000000" font-family="Microsoft YaHei" font-size="11" lengthAdjust="spacing" textLength="110" x="840" y="329.5073">&#23545;&#35805;&#35760;&#24405;&#23384;&#20648;&#65288;&#21152;&#23494;&#65289;</text><text fill="#000000" font-family="Microsoft YaHei" font-size="11" lengthAdjust="spacing" textLength="31" x="840" y="342.312">F3.13</text></g><!--entity F41--><g id="elem_F41"><rect fill="#EEF4FB" height="45.6094" rx="2.5" ry="2.5" style="stroke:#526D82;stroke-width:0.5;" width="124" x="1721" y="454.2969"/><text fill="#000000" font-family="Microsoft YaHei" font-size="11" lengthAdjust="spacing" textLength="104" x="1731" y="474.5073">&#22320;&#22270;&#19982; POI &#25968;&#25454;&#31649;&#29702;</text><text fill="#000000" font-family="Microsoft YaHei" font-size="11" lengthAdjust="spacing" textLength="24" x="1731" y="487.312">F4.1</text></g><!--entity F42--><g id="elem_F42"><rect fill="#EEF4FB" height="45.6094" rx="2.5" ry="2.5" style="stroke:#526D82;stroke-width:0.5;" width="143" x="1863.5" y="454.2969"/><text fill="#000000" font-family="Microsoft YaHei" font-size="11" lengthAdjust="spacing" textLength="123" x="1873.5" y="474.5073">POI &#26816;&#32034;&#65288;&#21517;&#31216; / &#31867;&#21035;&#65289;</text><text fill="#000000" font-family="Microsoft YaHei" font-size="11" lengthAdjust="spacing" textLength="24" x="1873.5" y="487.312">F4.2</text></g><!--entity F43--><g id="elem_F43"><rect fill="#EEF4FB" height="45.6094" rx="2.5" ry="2.5" style="stroke:#526D82;stroke-width:0.5;" width="86" x="1335" y="454.2969"/><text fill="#000000" font-family="Microsoft YaHei" font-size="11" lengthAdjust="spacing" textLength="66" x="1345" y="474.5073">&#23460;&#22806;&#36335;&#24452;&#35268;&#21010;</text><text fill="#000000" font-family="Microsoft YaHei" font-size="11" lengthAdjust="spacing" textLength="24" x="1345" y="487.312">F4.3</text></g><!--entity F44--><g id="elem_F44"><rect fill="#EEF4FB" height="45.6094" rx="2.5" ry="2.5" style="stroke:#526D82;stroke-width:0.5;" width="153" x="1439.5" y="454.2969"/><text fill="#000000" font-family="Microsoft YaHei" font-size="11" lengthAdjust="spacing" textLength="133" x="1449.5" y="474.5073">&#23460;&#20869;&#23548;&#33322;&#65288;&#27004;&#23618; / &#25151;&#38388;&#32423;&#65289;</text><text fill="#000000" font-family="Microsoft YaHei" font-size="11" lengthAdjust="spacing" textLength="24" x="1449.5" y="487.312">F4.4</text></g><!--entity F45--><g id="elem_F45"><rect fill="#EEF4FB" height="45.6094" rx="2.5" ry="2.5" style="stroke:#526D82;stroke-width:0.5;" width="86" x="1611" y="454.2969"/><text fill="#000000" font-family="Microsoft YaHei" font-size="11" lengthAdjust="spacing" textLength="66" x="1621" y="474.5073">&#27493;&#34892;&#26102;&#38388;&#20272;&#31639;</text><text fill="#000000" font-family="Microsoft YaHei" font-size="11" lengthAdjust="spacing" textLength="24" x="1621" y="487.312">F4.5</text></g><!--entity F46--><g id="elem_F46"><rect fill="#EEF4FB" height="45.6094" rx="2.5" ry="2.5" style="stroke:#526D82;stroke-width:0.5;" width="153" x="1439.5" y="565.2969"/><text fill="#000000" font-family="Microsoft YaHei" font-size="11" lengthAdjust="spacing" textLength="133" x="1449.5" y="585.5073">&#26657;&#20869;&#36890;&#21220;&#65288;&#20844;&#20132; / &#25670;&#28193;&#36710;&#65289;</text><text fill="#000000" font-family="Microsoft YaHei" font-size="11" lengthAdjust="spacing" textLength="24" x="1449.5" y="598.312">F4.6</text></g><!--entity F47--><g id="elem_F47"><rect fill="#EEF4FB" height="45.6094" rx="2.5" ry="2.5" style="stroke:#526D82;stroke-width:0.5;" width="141" x="1169.5" y="454.2969"/><text fill="#000000" font-family="Microsoft YaHei" font-size="11" lengthAdjust="spacing" textLength="121" x="1179.5" y="474.5073">&#25968;&#23383;&#20154;&#24102;&#36335;&#65288;&#35821;&#38899;&#25773;&#25253;&#65289;</text><text fill="#000000" font-family="Microsoft YaHei" font-size="11" lengthAdjust="spacing" textLength="24" x="1179.5" y="487.312">F4.7</text></g><!--entity F48--><g id="elem_F48"><rect fill="#EEF4FB" height="45.6094" rx="2.5" ry="2.5" style="stroke:#526D82;stroke-width:0.5;" width="64" x="987" y="454.2969"/><text fill="#000000" font-family="Microsoft YaHei" font-size="11" lengthAdjust="spacing" textLength="44" x="997" y="474.5073">&#22320;&#26631;&#35762;&#35299;</text><text fill="#000000" font-family="Microsoft YaHei" font-size="11" lengthAdjust="spacing" textLength="24" x="997" y="487.312">F4.8</text></g><!--entity F49--><g id="elem_F49"><rect fill="#EEF4FB" height="45.6094" rx="2.5" ry="2.5" style="stroke:#526D82;stroke-width:0.5;" width="82" x="1069" y="454.2969"/><text fill="#000000" font-family="Microsoft YaHei" font-size="11" lengthAdjust="spacing" textLength="62" x="1079" y="474.5073">AR &#23454;&#26223;&#23548;&#33322;</text><text fill="#000000" font-family="Microsoft YaHei" font-size="11" lengthAdjust="spacing" textLength="24" x="1079" y="487.312">F4.9</text></g><!--entity F410--><g id="elem_F410"><rect fill="#EEF4FB" height="45.6094" rx="2.5" ry="2.5" style="stroke:#526D82;stroke-width:0.5;" width="108" x="987" y="565.2969"/><text fill="#000000" font-family="Microsoft YaHei" font-size="11" lengthAdjust="spacing" textLength="88" x="997" y="585.5073">&#24120;&#29992;&#22320;&#28857;&#24555;&#25463;&#23548;&#33322;</text><text fill="#000000" font-family="Microsoft YaHei" font-size="11" lengthAdjust="spacing" textLength="31" x="997" y="598.312">F4.10</text></g><polygon fill="#526D82" points="975.8267,181.9486,984.4843,177.2534,978.875,177.9853,978.1431,172.376,975.8267,181.9486" style="stroke:#526D82;stroke-width:1.0;"/><path d="M1103.8115,91.1747 C1077.7043,101.4305 1046.6509,115.9413 1022,134.2969 C1004.1992,147.5517 991.4749,161.6036 979.4847,177.1927 " fill="none" style="stroke:#526D82;stroke-width:1.0;"/><text fill="#000000" font-family="Microsoft YaHei" font-size="10" lengthAdjust="spacing" textLength="40" x="1054" y="123.5791">&#25991;&#23383;&#25552;&#38382;</text><polygon fill="#526D82" points="407.1003,188.175,414.8398,182.084,409.4349,183.7535,407.7654,178.3486,407.1003,188.175" style="stroke:#526D82;stroke-width:1.0;"/><path d="M1103.8876,75.415 C949.8693,81.9026 510.3953,102.979 454,134.2969 C432.3716,146.3077 419.3211,165.0301 409.9018,182.8692 " fill="none" style="stroke:#526D82;stroke-width:1.0;"/><text fill="#000000" font-family="Microsoft YaHei" font-size="10" lengthAdjust="spacing" textLength="40" x="555" y="123.5791">&#35821;&#38899;&#25552;&#38382;</text><polygon fill="#526D82" points="1912.5785,454.0167,1908.7854,444.9276,1908.9448,450.5822,1903.2902,450.7416,1912.5785,454.0167" style="stroke:#526D82;stroke-width:1.0;"/><path d="M1210.2419,93.0544 C1330.3785,138.8218 1629.5282,259.49 1854,406.2969 C1875.3101,420.2339 1892.649,435.18 1908.218,449.8953 " fill="none" style="stroke:#526D82;stroke-width:1.0;"/><text fill="#000000" font-family="Microsoft YaHei" font-size="10" lengthAdjust="spacing" textLength="40" x="1614" y="268.5791">&#25628;&#32034;&#22320;&#28857;</text><polygon fill="#526D82" points="1243.1581,454.2931,1248.2505,445.8629,1243.7824,449.3322,1240.3131,444.8641,1243.1581,454.2931" style="stroke:#526D82;stroke-width:1.0;"/><path d="M1184.6215,95.3766 C1195.7483,105.899 1207.4742,119.4328 1214,134.2969 C1263.0716,246.0692 1250.9736,392.1858 1243.9073,448.34 " fill="none" style="stroke:#526D82;stroke-width:1.0;"/><text fill="#000000" font-family="Microsoft YaHei" font-size="10" lengthAdjust="spacing" textLength="40" x="1248" y="268.5791">&#35831;&#27714;&#24102;&#36335;</text><polygon fill="#526D82" points="793.7005,309.199,802.155,304.1472,796.5811,305.1122,795.6161,299.5382,793.7005,309.199" style="stroke:#526D82;stroke-width:1.0;"/><path d="M908.1472,240.3802 C903.0754,243.1344 897.9596,245.822 893,248.2969 C861.8258,263.8531 848.633,258.0779 821,279.2969 C810.3316,287.4889 804.3076,294.1504 797.1572,304.2948 " fill="none" style="stroke:#526D82;stroke-width:1.0;"/><text fill="#000000" font-family="Microsoft YaHei" font-size="10" lengthAdjust="spacing" textLength="40" x="868" y="268.5791">&#20808;&#26597;&#32531;&#23384;</text><polygon fill="#526D82" points="749.1892,446.2697,755.4163,438.6393,750.5048,441.4459,747.6982,436.5343,749.1892,446.2697" style="stroke:#526D82;stroke-width:1.0;"/><path d="M773.9917,355.3272 C767.3466,379.6925 758.1803,413.3023 750.7679,440.4811 " fill="none" style="stroke:#526D82;stroke-width:1.0;"/><polygon fill="#526D82" points="776.2007,570.9671,768.2141,565.204,771.3073,569.9402,766.5711,573.0335,776.2007,570.9671" style="stroke:#526D82;stroke-width:1.0;"/><path d="M913.1578,240.3784 C906.6239,243.584 899.7899,246.3832 893,248.2969 C834.8345,264.6906 390.5811,234.518 350,279.2969 C211.4658,432.1611 591.2959,532.1656 770.3286,569.7348 " fill="none" style="stroke:#526D82;stroke-width:1.0;"/><text fill="#000000" font-family="Microsoft YaHei" font-size="10" lengthAdjust="spacing" textLength="90" x="345" y="395.5791">&#26410;&#21629;&#20013;&#21017;&#26816;&#32034;&#38382;&#31572;&#24211;</text><polygon fill="#526D82" points="477.2576,309.1949,487.0094,307.8157,481.4972,306.5444,482.7685,301.0322,477.2576,309.1949" style="stroke:#526D82;stroke-width:1.0;"/><path d="M778.6312,234.3872 C767.6587,239.6329 755.5972,244.7337 744,248.2969 C655.0765,275.6178 624.9596,249.0159 537,279.2969 C516.0092,286.5232 499.3957,295.3548 482.3452,306.0143 " fill="none" style="stroke:#526D82;stroke-width:1.0;"/><text fill="#000000" font-family="Microsoft YaHei" font-size="10" lengthAdjust="spacing" textLength="97" x="703" y="268.5791">&#20302;&#32622;&#20449;&#24230;&#36208; LLM &#20828;&#24213;</text><polygon fill="#526D82" points="317.0795,460.9805,326.8265,462.3931,321.8926,459.6261,324.6595,454.6922,317.0795,460.9805" style="stroke:#526D82;stroke-width:1.0;"/><path d="M444.573,355.5492 C443.1913,369.3466 439.2899,386.6078 429,398.2969 C400.372,430.8174 362.3556,448.2403 322.8552,459.3552 " fill="none" style="stroke:#526D82;stroke-width:1.0;"/><polygon fill="#526D82" points="236.1762,447.899,242.808,440.6176,237.7515,443.1537,235.2154,438.0972,236.1762,447.899" style="stroke:#526D82;stroke-width:1.0;"/><path d="M365.8902,234.3951 C358.5382,239.2332 350.6177,244.1446 343,248.2969 C333.2129,253.6317 327.8546,250.3879 320,258.2969 C292.0923,286.3977 255.4602,389.8076 238.0665,442.2046 " fill="none" style="stroke:#526D82;stroke-width:1.0;"/><polygon fill="#526D82" points="230.0818,448.2415,235.0406,439.7321,230.6278,443.2714,227.0885,438.8586,230.0818,448.2415" style="stroke:#526D82;stroke-width:1.0;"/><path d="M253.5774,234.3513 C248.3227,282.1864 236.5404,389.4468 230.737,442.2774 " fill="none" style="stroke:#526D82;stroke-width:1.0;"/><polygon fill="#526D82" points="865.9464,556.9217,871.0726,548.512,866.5906,551.9633,863.1393,547.4813,865.9464,556.9217" style="stroke:#526D82;stroke-width:1.0;"/><path d="M892.1292,355.3934 C886.2174,400.896 873.4493,499.1721 866.7194,550.9717 " fill="none" style="stroke:#526D82;stroke-width:1.0;"/><polygon fill="#526D82" points="1766.9603,454.1172,1764.4028,444.6062,1763.8128,450.2322,1758.1868,449.6422,1766.9603,454.1172" style="stroke:#526D82;stroke-width:1.0;"/><path d="M689.0181,361.3244 C703.8651,367.7706 720.2289,373.7648 736,377.2969 C749.1931,380.2516 1696.5145,401.1104 1709,406.2969 C1732.844,416.2017 1749.7829,432.9147 1763.1833,449.4552 " fill="none" style="stroke:#526D82;stroke-width:1.0;"/><text fill="#000000" font-family="Microsoft YaHei" font-size="10" lengthAdjust="spacing" textLength="80" x="1473" y="395.5791">&#31572;&#26696;&#20869;&#23884;&#22320;&#22270;&#28857;&#20301;</text><polygon fill="#526D82" points="947.5076,563.4445,957.1954,565.2184,952.3677,562.27,955.3161,557.4422,947.5076,563.4445" style="stroke:#526D82;stroke-width:1.0;"/><path d="M1341.8441,500.3699 C1335.7186,503.4177 1329.2988,506.2122 1323,508.2969 C1174.7178,557.3728 1128.0884,526.3133 975,557.2969 C966.0476,559.1088 962.583,559.8011 953.3397,562.035 " fill="none" style="stroke:#526D82;stroke-width:1.0;"/><text fill="#000000" font-family="Microsoft YaHei" font-size="10" lengthAdjust="spacing" textLength="74" x="1253" y="536.5791">&#35835;&#21462; POI &#19982;&#36335;&#32593;</text><!--SRC=[hLTRJnj757xVNp6b3vLIcM1xmwLIAt5pKoca54ZRIBmis10duAMsGvfMaO1Wud0rTyBD673iXlX2RZZ6Db9-IhipktxAN-YPcLrxiPts9GWXntFcE-TyvtpdJBuOyqh3en8QaHxAz_t8D-hoInv9-0fz-pb-00VFXhN7URB_ZknFuqG8xnIG3VqziGQ_Y3pBmbbnCwacrfJC8Zc8u9q4JkMqu8kFkM2N7VqcMNmkxxXxq8M-HbqYyaZZxc79xvOznlSVSq_12LbFauKasOkIREXZRjif3_gkweup0RomNZ_gHEFM-WRq8MQZvfbN9BnADjxZt18uwhxvFS3t_lmzWkZKfqy04q303g6xqhY4B7SbBneRaJp- -wCZzVGVbi4xajVdygDRVGvBCxBunpp3yDStFemQcYpLALl-8zFwCK3zR8JxxhazOv9N6aK3qk2zOQzyt-DibqTaB_hImNvC5axNa7H_nE-GFVwRqgWBrNMv1xsoJnxoezlITPUxpcJhkoCvvGTkI7D86l6vJ2UjNg_yG7TnpTROqMohFAGEUjr_k92rmNJaTGr2gmsFkD2V0a9jbT5sTZf4HnizaRrEb_Uo0uJAc5RXaGbr372auKzWEbeTxOxEIimMiTNUrgnZwjzPEsqjzZR3Z_yXH3aWZpWlERPTSkoK_DA0vFjKDiqEUsVx9x8nmzoK_Qws6fLhwMoij38ZTRIqsSNM2WipHuBVxOSaQghnmzd_Av7AZsfDA9Uj3bI74vjADgjaZvNiYdgIwlVWz98QdyFP9NGLTRSZV1p3fqjrIFAXpfjzFRS5mIXGdKdRtw1cQuFrdua9S6IE15oNVMJEkHk8eewHN4BYnZYxgYOZQcY6do9JW-aMP2-YxYHHUy-j3fep3iwef-Si-uCdQg80mOTIwbeS8iUJk_2Xt-EmrrjPy0wx5J0VLNWj7cw1ForsLClboLRnS1cCy79UoIJKxMboDA6-EGGlWTV5jQIMMW1ISI1EDfumHpRTaQqIYKmlqRd4745jr71KIytWS5WxWsXFsLsxVjTUUHSl7Mcf19xV84iXY8KPYxgnM6LylAtbapZrNaljKLgq2re7KfY68SfeYkML_88MYKBK3EcQZdIjaXkSNGE-rRKm2OPgS7FZHXTalekpwr3XSlLuOeVxE9U58ZCFZRg7ngfOK_FunOgINwLrZGI1rPq2C0cr8sydQGT2Prz5Mcm6Ya0Bkfkc74wzXmGOS9CEt5GPEj1L3By6dd5odso-Aqvi5oTNQ-J0xRJ2AWv4KMjl3qDjrb6RQrkJbGIPZQA-lbwQzr-dU3OE1SBxSqQwBVhzbihxlxW6UkN1Ux1nU5XARXkAn1lKgATLhChb8gI5ebJFR3_Mo49zd2XkndahayMujX3Yc0q6PaDLD-w-W3u4rhLa6kVN0LpBlmHzuhCelreIZBM6CwY0cbl5YIrkQ_IyrLPTNzg5t0UOuwauK8Pd3t1gnY3BQdIzrSuIVsGQBjKF1Jvax7J8Y8ZFDzJQ0wrXxq1yq5LC5Tuob3ocsnhabInGzuy_w6yGFe8WFj6O768L3yoQWTASGWjgB0rnm2p2mHEUd6XC0z5MLTEp52vCQx5f75of5LFo61zlc8qOd4wLQAzbFnCeJNeIpU7JAQgYu4LnyusQZHa1wLqcLaqDaeXgaNagbSqtIYwj9ZUPlJuRn6jLzi3zJ01qXUUEQVu1w9vZwd5vXcGYMlwvuL7NljXOIG7V0tWvg2wcQr1GMXauyno801zczHde-W0GcsfK5VQ1bdm5RSuiTL6BLQA6zg5gV9RYz35ZNS5YbO9n9WCh1S110lZYX2oScMuPUXEPtbWhbzuJTLqFUt-wGUVlGtX-_Uxsz7jA8nDeuvE0RjjI3pAiZZOJH8_BwVRrUxW0-MqkGmhB4PJCh9APWn7ARlTq29SMmqRnSLmfx6blDs3I5fBAHGJurQOpv22ZPKye2en020966yABKtWT942dFDbTmBCHjam21IsPWl6hvfFyM_ug-BLF4DZJ05aitz7r1qA5AA22V6LTEco6GxsOLOSYkndQ1LbnbYyTDh6RP-HqYdU5851N7DLAR-90a8IZd1M1VKSFWGV3hgEDuk- -uFiS1vzn2PTg0OPs7R0HB9Ny8cGAHE7iS-rj6fLtda0Dg27DdUPK_jnY-corwsxXSvEUXHM0-SAZedqxRrvh0gYx7AYMEiTB6wmfw8Y6fq9-MH0yy2g4XwpVBuyYUOXY8tJb2d-GgDddP2zyvGfy1UKgfQNaje0QdlJ7t3nDGpaFbBOtMOp1ZYUxB-6CFcAW1-ZQfaz5TBajbC8EF0kWCt0XW9FRO4yfNup21YIpUUqq0iyXmA7oYqV8N9ZVvnd2VzLepiRRaZui9YPvPDLznI-opOZAUvDtBqvlqnBcrc5hqmZuCcNpX6nFAUTHTBslhnkHdGlb_4XmUPo8KYRy2m00]--></g></svg>